<?xml version="1.0" standalone="no"?>
<!DOCTYPE svg PUBLIC "-//W3C//DTD SVG 1.1//EN" "http://www.w3.org/Graphics/SVG/1.1/DTD/svg11.dtd" >
<svg>
<metadata>
Created by FontForge 20090914 at Fri Oct 16 23:07:51 2015
 By www-data
Copyright (c) 2012, Agustina Mingote (agustinamingote@gmail.com), with Reserved Font Names "Gudea"
</metadata>
<defs>
<font id="Gudea" horiz-adv-x="518" >
  <font-face 
    font-family="Gudea"
    font-weight="400"
    font-stretch="normal"
    units-per-em="1000"
    panose-1="2 0 0 0 0 0 0 0 0 0"
    ascent="800"
    descent="-200"
    x-height="499.998"
    cap-height="700"
    bbox="-52.002 -240 1006 972"
    underline-thickness="50"
    underline-position="-50"
    unicode-range="U+000C-U+FB02"
  />
<missing-glyph horiz-adv-x="211" 
 />
    <glyph glyph-name=".notdef" horiz-adv-x="211" 
 />
    <glyph glyph-name="flecha0" horiz-adv-x="464" 
d="M354 -62l-334 336l334 334v-670z" />
    <glyph glyph-name="space" unicode=" " horiz-adv-x="250" 
 />
    <glyph glyph-name="exclam" unicode="!" horiz-adv-x="266" 
d="M171 190h-75v511h75v-511zM170 0h-75v93h75v-93z" />
    <glyph glyph-name="quotedbl" unicode="&#x22;" horiz-adv-x="378" 
d="M322 442h-75v259h75v-259zM130 442h-75v259h75v-259z" />
    <glyph glyph-name="numbersign" unicode="#" horiz-adv-x="619" 
d="M588 465h-104l-21 -209h98v-65h-105l-19 -191h-76l20 191h-159l-20 -191h-76l20 191h-116v65h122l23 209h-119v65h124l18 170h76l-18 -170h159l18 170h75l-16 -170h96v-65zM410 465h-159l-23 -209h159z" />
    <glyph glyph-name="dollar" unicode="$" horiz-adv-x="508" 
d="M279 660c39.333 -4.66699 75.332 -11.998 107.999 -21.998l18 -5l-14 -60l-55 16c-35.333 8.66699 -66 13 -92 13c-68.667 0 -103 -31.333 -103 -94c0 -46.667 36.333 -82.667 109 -108c30.667 -10 61 -21 91 -33s55.667 -30.667 77 -56s32 -57 32 -95
c0 -52 -14.833 -94 -44.5 -126s-71.834 -51.333 -126.501 -58v-92h-65v90c-54 3.33301 -104.667 19.666 -152 48.999l22 50c53.333 -24.667 104.166 -37 152.499 -37s85 9.83301 110 29.5s37.5 45.334 37.5 77.001s-10.667 56.5 -32 74.5s-47.166 32.5 -77.499 43.5
s-60.666 23 -90.999 36s-56.166 32.167 -77.499 57.5s-32 59.166 -32 101.499s12.833 76.666 38.5 102.999s59.5 41.5 101.5 45.5v87h65v-87z" />
    <glyph glyph-name="percent" unicode="%" horiz-adv-x="737" 
d="M597 688l-408 -687h-78l408 687h78zM600 252c-12 22.667 -29.833 34 -53.5 34s-41.5 -11.333 -53.5 -34s-18 -52 -18 -88c0 -80 23.333 -120 70 -120c48.667 0 73 40 73 120c0 36 -6 65.333 -18 88zM545 336c88.667 0 133 -56.998 133 -170.998s-45 -171 -135 -171
c-43.333 0 -75.5 15.167 -96.5 45.5s-31.5 70.666 -31.5 120.999s10.667 92.166 32 125.499s54 50 98 50zM230 612.002c-12 22.667 -29.833 34 -53.5 34s-41.5 -11.333 -53.5 -34s-18 -52 -18 -88c0 -80 23.333 -120 70 -120c48.667 0 73 40 73 120c0 36 -6 65.333 -18 88z
M175 696.002c88.667 0 133 -56.998 133 -170.998s-45 -171 -135 -171c-43.333 0 -75.5 15.167 -96.5 45.5s-31.5 70.666 -31.5 120.999s10.667 92.166 32 125.499s54 50 98 50z" />
    <glyph glyph-name="ampersand" unicode="&#x26;" horiz-adv-x="756" 
d="M527 361l72 0.000976562c-4.66699 -75.333 -13.667 -130.666 -27 -165.999c-4 -12 -10.667 -28 -20 -48l143 -146h-100l-82 89c-22.667 -27.333 -54.334 -50.333 -95.001 -69s-82 -28 -124 -28c-76 0 -134.167 18 -174.5 54s-60.5 84.667 -60.5 146
c0 44 12 78.667 36 104s62.667 51 116 77c-39.333 35.333 -68.333 65.333 -87 90s-28 49.667 -28 75c0 50 18 91 54 123s82.333 48 139 48s101.834 -14.833 135.501 -44.5s50.5 -65.834 50.5 -108.501s-11.833 -78.334 -35.5 -107.001s-61.5 -57 -113.5 -85l169 -164
c21.333 44 32 97.333 32 160zM466 138.001l-204.999 196.001c-84.667 -38.667 -127 -87.667 -127 -147c0 -38.667 14.5 -69.834 43.5 -93.501s64.333 -35.5 106 -35.5s78.667 8.16699 111 24.5s56.166 34.833 71.499 55.5zM189.001 500.002
c12 -14.667 20.999 -25.333 26.999 -32c14 -15.333 34.333 -35 61 -59c84 42 126 90.667 126 146c0 30 -11.333 52.5 -34 67.5s-50.667 22.5 -84 22.5s-60.666 -8 -81.999 -24s-32 -36.5 -32 -61.5s6 -44.833 18 -59.5z" />
    <glyph glyph-name="quotesingle" unicode="'" horiz-adv-x="185" 
d="M130 367h-75v259h75v-259z" />
    <glyph glyph-name="parenleft" unicode="(" horiz-adv-x="282" 
d="M196 -130c-78.667 137.333 -118 286.167 -118 446.5s41 309.5 123 447.5l66 -13c-76 -140.667 -114 -285.5 -114 -434.5s37.333 -293.833 112 -434.5z" />
    <glyph glyph-name="parenright" unicode=")" horiz-adv-x="282" 
d="M88 764c82 -138 123 -287.168 123 -447.501s-39.333 -309.166 -118 -446.499l-69 12c74.667 140.667 112 285.5 112 434.5s-38 293.833 -114 434.5z" />
    <glyph glyph-name="asterisk" unicode="*" horiz-adv-x="430" 
d="M383 490l-31 -58l-119 81l13 -143h-65l10 143l-119 -81l-31 53l130 63l-129 63l35 55l114 -82l-10 143h65l-13 -143l119 81l31 -57l-130 -58z" />
    <glyph glyph-name="plus" unicode="+" horiz-adv-x="469" 
d="M440 262h-173v-193h-75v193h-164v65h164v200h75v-200h173v-65z" />
    <glyph glyph-name="comma" unicode="," horiz-adv-x="244" 
d="M187 87l-113 -259l-49 16l87 267z" />
    <glyph glyph-name="hyphen" unicode="-" horiz-adv-x="287" 
d="M239 254h-191v75h191v-75z" />
    <glyph glyph-name="period" unicode="." horiz-adv-x="183" 
d="M129 0h-75v106h75v-106z" />
    <glyph glyph-name="slash" unicode="/" horiz-adv-x="491" 
d="M451 800l-324 -945h-80l325 945h79z" />
    <glyph glyph-name="zero" unicode="0" horiz-adv-x="580" 
d="M526 352c0 -179.333 -47.667 -292.001 -143 -338.001c-28.667 -13.333 -61.667 -20 -99 -20c-152.667 0 -229 119.333 -229 358c0 96.667 16.333 178.334 49 245.001c17.333 35.333 42.333 63 75 83s71.667 30 117 30c153.333 0 230 -119.333 230 -358zM451 349.999v4
c0 194 -53.333 291 -160 291c-39.333 0 -71.333 -14.167 -96 -42.5s-41.667 -63.333 -51 -105s-14 -90.167 -14 -145.5c0 -195.333 53.5 -293 160.5 -293s160.5 97 160.5 291z" />
    <glyph glyph-name="one" unicode="1" horiz-adv-x="519" 
d="M42 0v65h195v561l-172 -111l-37 56l209 129h75v-635h153v-65h-423z" />
    <glyph glyph-name="two" unicode="2" horiz-adv-x="524" 
d="M470 65l-0.998047 -65.001h-412v72c112 114 193.5 205.667 244.5 275s76.5 129.333 76.5 180c0 78.667 -43.667 118 -131 118c-47.333 0 -94.333 -5.33301 -141 -16l-22 -5l-14 58c50.667 18.667 109.667 28 177 28s118.666 -15.167 153.999 -45.5
s53 -74.666 53 -132.999s-24.833 -124.333 -74.5 -198s-125.834 -163.167 -228.501 -268.5h319z" />
    <glyph glyph-name="three" unicode="3" horiz-adv-x="528" 
d="M136 391l95.001 0.000976562c45.333 0 80.833 12.667 106.5 38s38.5 57 38.5 95c0 80.667 -44.667 121 -134 121c-22.667 0 -47.334 -3.5 -74.001 -10.5s-48 -13.833 -64 -20.5l-23 -10l-14 58c23.333 13.333 50.833 24.666 82.5 33.999s61.5 14 89.5 14
c71.333 0 124.5 -16 159.5 -48s52.5 -72.5 52.5 -121.5s-12.5 -89.667 -37.5 -122s-57.167 -52.166 -96.5 -59.499c46 -6.66699 83.667 -24.334 113 -53.001s44 -65 44 -109c0 -64 -21.333 -113.833 -64 -149.5s-102.334 -53.5 -179.001 -53.5c-32 0 -63.167 4 -93.5 12
s-52.833 16 -67.5 24l-21 11l25 56c54.667 -25.333 108.834 -38 162.501 -38s94 11.5 121 34.5s40.5 54.833 40.5 95.5s-14.5 73.667 -43.5 99s-70.167 38 -123.5 38h-95v65z" />
    <glyph glyph-name="four" unicode="4" horiz-adv-x="540" 
d="M331 -1v132h-316v49l219 520h75l-212 -504h234v186h72v-186h83v-65h-83v-132h-72z" />
    <glyph glyph-name="five" unicode="5" horiz-adv-x="558" 
d="M385.5 102.5c29 28.333 43.5 66.832 43.5 115.499s-17.333 84.5 -52 107.5s-83 34.5 -145 34.5l-132 1l24 339h357l-5 -65h-288l-11 -211c21.333 0.666992 42.333 1 63 1c80 0 144 -17.167 192 -51.5s72 -82.166 72 -143.499c0 -72 -21.333 -129.333 -64 -172
s-103.667 -64 -183 -64c-32.667 0 -65.167 4.33301 -97.5 13s-56.5 17.667 -72.5 27l-24 13l23 53c60 -26.667 117.667 -40 173 -40s97.5 14.167 126.5 42.5z" />
    <glyph glyph-name="six" unicode="6" horiz-adv-x="576" 
d="M304 423c69.333 0 123 -17.332 161 -51.999s57 -85.334 57 -152.001s-19.667 -120.834 -59 -162.501s-92.333 -62.5 -159 -62.5c-154.667 0 -232 105.333 -232 316c0 194.667 45 317.667 135 369c36 20.667 79.667 31 131 31c26 0 51.667 -2.66699 77 -8
s44 -10.666 56 -15.999l18 -9l-18 -60c-46.667 18 -94 27 -142 27c-59.333 0 -102.833 -23 -130.5 -69s-44.167 -109 -49.5 -189c56 24.667 107.667 37 155 37zM309 59.001c42 0 75.501 14.501 100.501 43.501s37.5 65.833 37.5 110.5c0 96.667 -49 145 -147 145
c-50.667 0 -101.667 -15.667 -153 -47c0 -82.667 12.667 -145.334 38 -188.001s66.666 -64 123.999 -64z" />
    <glyph glyph-name="seven" unicode="7" horiz-adv-x="507" 
d="M26 625v75h451v-75l-310 -625h-83l309 625h-367z" />
    <glyph glyph-name="eight" unicode="8" horiz-adv-x="575" 
d="M448 661.5c36.667 -32.333 55 -71.832 55 -118.499s-10.5 -86.834 -31.5 -120.501s-43.5 -59.834 -67.5 -78.501c36.667 -19.333 65.334 -40.5 86.001 -63.5s31 -51.833 31 -86.5c0 -63.333 -20.833 -112.5 -62.5 -147.5s-99.667 -52.5 -174 -52.5s-130 18.333 -167 55
s-55.5 82 -55.5 136c0 24 4.66699 46.833 14 68.5s21.666 39.834 36.999 54.501c27.333 26 52.333 44.667 75 56c-68.667 38 -103 88.5 -103 151.5s19.333 111.167 58 144.5s90 50 154 50s114.333 -16.167 151 -48.5zM370 286.001c-23.333 12 -60.666 27.333 -111.999 46
c-23.333 -10 -44.666 -23.333 -63.999 -40c-38 -31.333 -57 -66 -57 -104s12.667 -69.333 38 -94s62.166 -37 110.499 -37s87.166 11.667 116.499 35s44 55 44 95s-25.333 73 -76 99zM430 530.001c0 33.333 -12.001 60.832 -36.001 82.499s-56.167 32.5 -96.5 32.5
s-73.666 -10.833 -99.999 -32.5s-39.5 -49.5 -39.5 -83.5c0 -28 12 -54.333 36 -79c18 -19.333 66.333 -44.666 145 -75.999c60.667 45.333 91 97.333 91 156z" />
    <glyph glyph-name="nine" unicode="9" horiz-adv-x="557" 
d="M271 281c-69.333 0 -123.002 17.332 -161.002 51.999s-57 85.334 -57 152.001s19.667 120.834 59 162.501s92.333 62.5 159 62.5c154.667 0 232 -105.333 232 -316c0 -194.667 -45 -317.667 -135 -369c-36 -20.667 -79.667 -31 -131 -31c-26 0 -51.667 2.66699 -77 8
s-44 10.666 -56 15.999l-18 9l18 60c46.667 -18 94 -27 142 -27c108.667 0 168.334 86 179.001 258c-49.333 -24.667 -100.666 -37 -153.999 -37zM265.998 644.999c-42 0 -75.501 -14.499 -100.501 -43.499s-37.5 -65.833 -37.5 -110.5c0 -96.667 49 -145 147 -145
c49.333 0 100.333 15.333 153 46v4c0 81.333 -12.667 143.166 -38 185.499s-66.666 63.5 -123.999 63.5z" />
    <glyph glyph-name="colon" unicode=":" horiz-adv-x="217" 
d="M146 0h-75v106h75v-106zM146 394h-75v106h75v-106z" />
    <glyph glyph-name="semicolon" unicode=";" horiz-adv-x="276" 
d="M205 394h-75v106h75v-106zM205 89l-113 -259l-49 16l90 267z" />
    <glyph glyph-name="less" unicode="&#x3c;" horiz-adv-x="528" 
d="M453 45l-392 224v57l392 225v-80l-319 -173l319 -175v-78z" />
    <glyph glyph-name="equal" unicode="=" horiz-adv-x="580" 
d="M505 361h-430v65h430v-65zM505 163h-430v65h430v-65z" />
    <glyph glyph-name="greater" unicode="&#x3e;" horiz-adv-x="528" 
d="M467 270l-392 -224v77l319 175l-319 173v80l392 -225v-56z" />
    <glyph glyph-name="question" unicode="?" horiz-adv-x="463" 
d="M342 426l-48.001 -45.999c-38 -36 -57 -77 -57 -123v-63h-74v58c0 29.333 5.5 56.166 16.5 80.499s24.333 44.5 40 60.5l46.5 47c38 36 57 73 57 111c0 62 -37 93 -111 93c-43.333 0 -83.666 -6.33301 -120.999 -19l-11 58c54 18 105.167 27 153.5 27
s87.833 -13.5 118.5 -40.5s46 -65 46 -114s-18.667 -92.167 -56 -129.5zM235.999 0.000976562h-75v98h75v-98z" />
    <glyph glyph-name="at" unicode="@" horiz-adv-x="907" 
d="M530 216l37.999 192.998c-1.33301 0.666992 -4.16602 3.33398 -8.49902 8.00098s-8.5 8.5 -12.5 11.5s-9.33301 6.5 -16 10.5c-13.333 8 -30.333 12 -51 12c-45.333 0 -81.333 -23.167 -108 -69.5s-40 -99 -40 -158s22.667 -88.5 68 -88.5
c23.333 0 43.5 5.83301 60.5 17.5s40.167 32.834 69.5 63.501zM534.999 80.998l-7.99902 66.001c-14 -14 -25.667 -24.833 -35 -32.5s-24 -16 -44 -25s-40 -13.5 -60 -13.5c-38.667 0 -68 13 -88 39s-30 61.833 -30 107.5s6.66699 88.5 20 128.5s30.666 71.333 51.999 94
c42.667 46.667 86.667 70 132 70c25.333 0 44.5 -3.5 57.5 -10.5s21.833 -12.167 26.5 -15.5c9.33301 -6.66699 19 -15 29 -25l16 40h46l-73 -369c56 0 101.5 20 136.5 60s52.5 107.667 52.5 203c0 164 -96.333 246 -289 246c-114 0 -197.5 -34.167 -250.5 -102.5
s-79.5 -171.5 -79.5 -309.5c0 -100.667 20.167 -174 60.5 -220s105.5 -69 195.5 -69h173l2 -54c-56.667 -5.33301 -116.334 -8 -179.001 -8c-214.667 0 -322 109.333 -322 328c0 333.333 133.667 500 401 500c235.333 0 353 -105 353 -315c0 -120 -27 -203.333 -81 -250
c-26.667 -22.667 -57.167 -38.834 -91.5 -48.501s-75.166 -14.5 -122.499 -14.5z" />
    <glyph glyph-name="A" unicode="A" horiz-adv-x="579" 
d="M566 0h-84l-70 221h-251l-69 -221h-79l230 700h91zM395 286l-107 338l-108 -338h215z" />
    <glyph glyph-name="B" unicode="B" horiz-adv-x="587" 
d="M91 0v699.998h200c71.333 0 124.666 -15.5 159.999 -46.5s53 -75.167 53 -132.5c0 -38.667 -12.667 -70.667 -38 -96s-59.666 -40.666 -102.999 -45.999c53.333 -8 94.833 -27 124.5 -57s44.5 -67.333 44.5 -112c0 -63.333 -21.833 -114.166 -65.5 -152.499
s-104.5 -57.5 -182.5 -57.5h-193zM169 64.998h139c44 0 79.333 13.333 106 40s40 60 40 100s-14.167 73 -42.5 99s-69.833 39 -124.5 39h-118v-278zM296 634.998l-127 -0.000976562v-228h117c36.667 0 69.167 10.167 97.5 30.5s42.5 48.5 42.5 84.5
c0 72.667 -43.333 110.334 -130 113.001z" />
    <glyph glyph-name="C" unicode="C" horiz-adv-x="584" 
d="M346 -6c-95.333 0 -168.499 32.167 -219.499 96.5s-76.5 151.5 -76.5 261.5s27 197 81 261s129.333 96 226 96c53.333 0 105.666 -9.66699 156.999 -29l-18 -62c-40.667 17.333 -88.667 26 -144 26c-70 0 -125.333 -25.5 -166 -76.5s-61 -121 -61 -210
s19.167 -161 57.5 -216s91.833 -82.5 160.5 -82.5c45.333 0 102.333 13 171 39l20 -52c-57.333 -34.667 -120 -52 -188 -52z" />
    <glyph glyph-name="D" unicode="D" horiz-adv-x="647" 
d="M597 375c0 -112.667 -32.668 -203.333 -98.001 -272s-152.666 -103 -261.999 -103h-146v700h177c99.333 0 179 -30.333 239 -91s90 -138.667 90 -234zM515.999 383.001c0 78.667 -23.999 140.332 -71.999 184.999s-105.333 67 -172 67h-100v-570h74
c75.333 0 139.166 28.333 191.499 85s78.5 134.334 78.5 233.001z" />
    <glyph glyph-name="E" unicode="E" horiz-adv-x="542" 
d="M468 0h-377v700h377v-65h-302v-222h277v-67h-277v-281h302v-65z" />
    <glyph glyph-name="F" unicode="F" horiz-adv-x="510" 
d="M469 700v-65h-303v-222h279v-67h-279v-346h-75v700h378z" />
    <glyph glyph-name="G" unicode="G" horiz-adv-x="646" 
d="M362 -6c-96.667 0 -173.498 32.667 -230.498 98s-85.5 152.5 -85.5 261.5s27 195.667 81 260s129.333 96.5 226 96.5c61.333 0 123.666 -12 186.999 -36l-18 -62c-22.667 9.33301 -52.334 17.166 -89.001 23.499s-65 9.5 -85 9.5c-70 0 -125.333 -25.667 -166 -77
s-61 -120.666 -61 -207.999s21.5 -159.333 64.5 -216s98.167 -85 165.5 -85c47.333 0 92 6.66699 134 20v211h-146v65h221v-307c-62.667 -36 -128.667 -54 -198 -54z" />
    <glyph glyph-name="H" unicode="H" horiz-adv-x="664" 
d="M573 0h-75v331h-332v-331h-75v700h75v-304h332v304h75v-700z" />
    <glyph glyph-name="I" unicode="I" horiz-adv-x="257" 
d="M166 0h-75v700h75v-700z" />
    <glyph glyph-name="J" unicode="J" horiz-adv-x="343" 
d="M252 211c0 -145.333 -50.333 -218 -151 -218c-35.333 0 -68.666 3.66699 -99.999 11v63c36 -6 65.667 -9 89 -9c33.333 0 56.166 15.333 68.499 46s18.5 72 18.5 124v413h-145v59h220v-489z" />
    <glyph glyph-name="K" unicode="K" horiz-adv-x="573" 
d="M555 0h-94l-205 383l-90 -95v-288h-75v699h74v-315l292 316h92l-242 -266z" />
    <glyph glyph-name="L" unicode="L" horiz-adv-x="473" 
d="M466 0h-375v700h75v-635h300v-65z" />
    <glyph glyph-name="M" unicode="M" horiz-adv-x="737" 
d="M681 0h-75v574l-225 -390l-26 1l-225 388v-573h-74v700h84l229 -385l237 385h75v-700z" />
    <glyph glyph-name="N" unicode="N" horiz-adv-x="679" 
d="M588 -1h-82l-337 561v-560h-78v700h78l344 -582v582h75v-701z" />
    <glyph glyph-name="O" unicode="O" horiz-adv-x="648" 
d="M323 -5c-91.333 0 -160.334 33.8311 -207.001 101.498s-70 153.834 -70 258.501s23.5 190 70.5 256s116 99 207 99s160.167 -33 207.5 -99s71 -151.333 71 -256c0 -143.333 -40.667 -246.666 -122 -309.999c-43.333 -33.333 -95.666 -50 -156.999 -50zM324.999 644.998
c-68 0 -118.833 -28.333 -152.5 -85s-50.5 -126 -50.5 -208s17.167 -151 51.5 -207s84.833 -84 151.5 -84s117 28.333 151 85s51 128 51 214c0 108 -30.333 188.667 -91 242c-31.333 28.667 -68.333 43 -111 43z" />
    <glyph glyph-name="P" unicode="P" horiz-adv-x="541" 
d="M268 294h-102.001v-294h-75v700h200c74.667 0 128.834 -16.333 162.501 -49s50.5 -83.5 50.5 -152.5s-20.667 -120.333 -62 -154s-99.333 -50.5 -174 -50.5zM256.999 636h-91v-278h66c68.667 0 118.667 10.333 150 31s47 56.167 47 106.5s-13.667 86.333 -41 108
s-71 32.5 -131 32.5z" />
    <glyph glyph-name="Q" unicode="Q" horiz-adv-x="651" 
d="M533 96l98 -101l-49 -49l-95 101c-44.667 -36 -98.5 -54 -161.5 -54s-115.833 17 -158.5 51c-80.667 63.333 -121 167 -121 311c0 104.667 23.5 190 70.5 256s116 99 207 99s160.167 -33 207.5 -99s71 -152.333 71 -259s-23 -192 -69 -256zM399 238l82 -89.002
c30.667 50.667 46 117.834 46 201.501s-17.833 153.834 -53.5 210.501s-85.5 85 -149.5 85c-35.333 0 -66.5 -8.33301 -93.5 -25s-48.167 -39 -63.5 -67c-30 -56 -45 -124.167 -45 -204.5s17.167 -148.833 51.5 -205.5s84.5 -85 150.5 -85c44 0 81.667 12.667 113 38l-88 92
z" />
    <glyph glyph-name="R" unicode="R" horiz-adv-x="603" 
d="M228 329h-62.001v-328h-75v700h202c68 0 119.167 -15.5 153.5 -46.5s51.5 -75.167 51.5 -132.5c0 -40 -13.833 -76.667 -41.5 -110s-61.834 -52.666 -102.501 -57.999c32.667 -7.33301 55.834 -17.833 69.501 -31.5s29.834 -42.834 48.501 -87.501l99 -234h-79l-97 224
c-18 42 -38.167 69.833 -60.5 83.5s-57.833 20.5 -106.5 20.5zM288.999 637l-122.999 0.000976562v-244h113c41.333 0 74.166 12.167 98.499 36.5s36.5 55.166 36.5 92.499s-11 65.833 -33 85.5s-52.667 29.5 -92 29.5z" />
    <glyph glyph-name="S" unicode="S" horiz-adv-x="551" 
d="M443 675l-15.9971 -66.998l-58 17c-41.333 10 -77 15 -107 15c-78.667 0 -118 -35 -118 -105c0 -30.667 12 -55.834 36 -75.501s53.167 -35.334 87.5 -47.001s68.666 -24.334 102.999 -38.001s63.5 -34.667 87.5 -63s36 -64.166 36 -107.499
c0 -66 -20.333 -117.5 -61 -154.5s-98.334 -55.5 -173.001 -55.5c-37.333 0 -74.833 5.5 -112.5 16.5s-68.5 23.833 -92.5 38.5l25 57c60.667 -28 118.167 -42 172.5 -42s95.666 11 123.999 33s42.5 54 42.5 96c0 42.667 -23 76 -69 100
c-20.667 10.667 -43.5 20.667 -68.5 30s-50 19.5 -75 30.5s-47.667 23.5 -68 37.5s-37 33 -50 57s-19.5 52 -19.5 84c0 57.333 17.167 101.333 51.5 132s80.5 46 138.5 46s119.333 -11.667 184 -35z" />
    <glyph glyph-name="T" unicode="T" horiz-adv-x="504" 
d="M216 0v633h-196v67h464v-67h-194v-633h-74z" />
    <glyph glyph-name="U" unicode="U" horiz-adv-x="664" 
d="M332 -6c-78.667 0 -138.498 22.167 -179.498 66.5s-61.5 110.166 -61.5 197.499v442h76v-454c0 -59.333 14.167 -105.333 42.5 -138s68.666 -49 120.999 -49s93.166 16.167 122.499 48.5s44 78.5 44 138.5v454h76v-442c0 -87.333 -20.5 -153.166 -61.5 -197.499
s-100.833 -66.5 -179.5 -66.5z" />
    <glyph glyph-name="V" unicode="V" horiz-adv-x="546" 
d="M533 700l-216 -700h-105l-199 700h84l171 -615l183 615h82z" />
    <glyph glyph-name="W" unicode="W" horiz-adv-x="751" 
d="M738 699l-166 -699h-87l-102 406l-125 -406h-82l-163 699h86l122 -614l133 425h56l123 -425l126 614h79z" />
    <glyph glyph-name="X" unicode="X" horiz-adv-x="584" 
d="M564 0h-92l-178 315l-183 -315h-91l232 368l-211 333h95l161 -277l166 277h90l-214 -333z" />
    <glyph glyph-name="Y" unicode="Y" horiz-adv-x="552" 
d="M539 700l-230 -385v-315h-75v315l-221 385h83l177 -324l185 324h81z" />
    <glyph glyph-name="Z" unicode="Z" horiz-adv-x="508" 
d="M479 0h-439v62l320 573h-321v65h409v-57l-317 -577h348v-66z" />
    <glyph glyph-name="bracketleft" unicode="[" horiz-adv-x="340" 
d="M301 -200h-210v1000h207v-65h-132v-871h135v-64z" />
    <glyph glyph-name="backslash" unicode="\" horiz-adv-x="484" 
d="M363 -145l-324 945h79l325 -945h-80z" />
    <glyph glyph-name="bracketright" unicode="]" horiz-adv-x="340" 
d="M249 -200h-210v64h135v871h-132v65h207v-1000z" />
    <glyph glyph-name="asciicircum" unicode="^" horiz-adv-x="639" 
d="M347 667l224 -392h-77l-175 319l-173 -319h-80l225 392h56z" />
    <glyph glyph-name="underscore" unicode="_" horiz-adv-x="430" 
d="M430 -236h-430v65h430v-65z" />
    <glyph glyph-name="grave" unicode="`" horiz-adv-x="391" 
d="M264 592l-58 -21l-130 132l75 30z" />
    <glyph glyph-name="a" unicode="a" horiz-adv-x="516" 
d="M307 299h41c0 60.667 -7.66699 100.167 -23 118.5s-49.333 27.5 -102 27.5s-97.334 -7 -134.001 -21l-14 58c56 18.667 114 28 174 28c117.333 0 176 -58.667 176 -176v-334h-44l-26 59c-30.667 -25.333 -57.167 -42.5 -79.5 -51.5s-48.166 -13.5 -77.499 -13.5
c-46.667 0 -83 13.833 -109 41.5s-39 64.167 -39 109.5c0 102.667 85.667 154 257 154zM349 236l-45.002 -0.000976562c-68 0 -114.833 -6.66699 -140.5 -20s-38.5 -34.166 -38.5 -62.499s7.33301 -51.5 22 -69.5s33.834 -27 57.501 -27s46.334 5.5 68.001 16.5
s47.167 30.167 76.5 57.5v105z" />
    <glyph glyph-name="b" unicode="b" horiz-adv-x="546" 
d="M91 700h75.001v-250c57.333 40.667 108.666 61 153.999 61c120 0 180 -86.333 180 -259c0 -98 -21.333 -166.667 -64 -206c-38 -34.667 -82.667 -52 -134 -52c-26 0 -52.333 5.83301 -79 17.5s-48.667 24.167 -66 37.5l-22 -49h-44v700zM166.001 379l0.00195312 -271.999
c13.333 -15.333 31.166 -27.333 53.499 -36s44.166 -13 65.499 -13c52 0 88.333 15.333 109 46s31 78.667 31 144s-10.333 114.666 -31 147.999s-47 50 -79 50c-48 0 -97.667 -22.333 -149 -67z" />
    <glyph glyph-name="c" unicode="c" horiz-adv-x="433" 
d="M385 78l15 -59c-53.333 -16 -100.333 -24 -141 -24c-71.333 0 -125 23.333 -161 70s-54 111 -54 193s18.667 144.5 56 187.5s92.333 64.5 165 64.5c31.333 0 75.333 -8 132 -24l-30 -58c-36.667 10.667 -69.667 16 -99 16c-50.667 0 -87.167 -15 -109.5 -45
s-33.5 -77.333 -33.5 -142c0 -131.333 47 -197 141 -197c37.333 0 77 6 119 18z" />
    <glyph glyph-name="d" unicode="d" horiz-adv-x="542" 
d="M376 700h74.999v-700h-44l-25 57c-61.333 -43.333 -114.666 -65 -159.999 -65c-120 0 -180 86.333 -180 259c0 98 21.333 166.333 64 205c38 35.333 81 53 129 53s95 -16.333 141 -49v240zM375.999 124v259.999c-14 16.667 -32.5 31 -55.5 43s-44.167 18 -63.5 18
c-52 0 -88.333 -15.333 -109 -46s-31 -78.667 -31 -144s10.333 -114.666 31 -147.999s47 -50 79 -50c48 0 97.667 22.333 149 67z" />
    <glyph glyph-name="e" unicode="e" horiz-adv-x="489" 
d="M438 234h-318.997c0 -64 15.167 -109.333 45.5 -136s68.5 -40 114.5 -40c23.333 0 39.666 1.16699 48.999 3.5s18.166 4.66602 26.499 6.99902s14.166 4.16602 17.499 5.49902c16.667 4.66699 31 9 43 13l12 -58c-66.667 -23.333 -118.667 -35 -156 -35
c-68.667 0 -123.667 20.833 -165 62.5s-62 104.334 -62 188.001s19.5 148.834 58.5 195.501s88.333 70 148 70s106.167 -19.333 139.5 -58s50 -91 50 -157c0 -18 -0.666992 -38.333 -2 -61zM124.003 291h244c0 49.333 -8.66699 87.333 -26 114s-47.5 40 -90.5 40
s-74.5 -14.333 -94.5 -43s-31 -65.667 -33 -111z" />
    <glyph glyph-name="f" unicode="f" horiz-adv-x="291" 
d="M113 500v95.999c0 40.667 12.5 69.834 37.5 87.501s52 26.5 81 26.5s57.167 -4.33301 84.5 -13l-11 -54c-22 4 -38.333 6 -49 6c-46 0 -69 -22.333 -69 -67v-82h102v-60h-102v-440h-75v440h-77v60h78z" />
    <glyph glyph-name="g" unicode="g" horiz-adv-x="542" 
d="M375 53c-56 -40 -107 -59.999 -153 -59.999c-120 0 -180 86.333 -180 259c0 98 21.333 166.667 64 206c38 34.667 84.167 52 138.5 52s99.833 -24.667 136.5 -74l26 65h44v-526c0 -72.667 -18 -126.667 -54 -162s-84.667 -53 -146 -53c-31.333 0 -59.333 4 -84 12
s-50.334 17 -77.001 27l14 53c56 -18 102.833 -27 140.5 -27s68.834 11.667 93.501 35s37 58.666 37 105.999v87zM375 125.001v187c0 39.333 -13 71.333 -39 96s-52.667 37 -80 37c-52 0 -88.333 -15.167 -109 -45.5s-31 -78.833 -31 -145.5
c0 -130.667 36.667 -196 110 -196c48 0 97.667 22.333 149 67z" />
    <glyph glyph-name="h" unicode="h" horiz-adv-x="556" 
d="M465 0l-75 0.000976562v329c0 80.667 -33.667 121 -101 121c-50 0 -91 -16 -123 -48v-402h-75v700h74v-237c14.667 12 26.167 20.667 34.5 26s22 10.666 41 15.999s40.5 8 64.5 8c46 0 84.167 -14 114.5 -42s45.5 -68 45.5 -120v-351z" />
    <glyph glyph-name="i" unicode="i" horiz-adv-x="228" 
d="M77 0v500h75v-500h-75zM152 700v-89h-75v89h75z" />
    <glyph glyph-name="j" unicode="j" horiz-adv-x="222" 
d="M146 700v-88h-75v88h75zM30 -204c27.333 35.333 41 92 41 170v534h75v-510c0 -57.333 -5.5 -103 -16.5 -137s-29.5 -64.667 -55.5 -92z" />
    <glyph glyph-name="k" unicode="k" horiz-adv-x="509" 
d="M91 700h75v-412l214 212h95l-212 -203l223 -297h-85l-182 250l-53 -54v-196h-75v700z" />
    <glyph glyph-name="l" unicode="l" horiz-adv-x="257" 
d="M91 0v700h75v-700h-75z" />
    <glyph glyph-name="m" unicode="m" horiz-adv-x="850" 
d="M302 511c64 0 109.667 -22.667 137 -68c56.667 45.333 109 68 157 68s87.167 -13.5 117.5 -40.5s45.5 -66.167 45.5 -117.5v-353h-73v322c0 40.667 -9.16699 71.5 -27.5 92.5s-42.833 31.5 -73.5 31.5c-42 0 -84.333 -16.667 -127 -50c3.33301 -14.667 5 -29 5 -43v-353
h-73v322c0 40.667 -9.16699 71.5 -27.5 92.5s-42.833 31.5 -73.5 31.5c-20 0 -38.333 -2.66699 -55 -8s-29 -10.666 -37 -15.999s-18.333 -13.333 -31 -24v-398h-75v500h48l13 -51c16.667 14 29.5 24.167 38.5 30.5s23.833 13.166 44.5 20.499s43 11 67 11z" />
    <glyph glyph-name="n" unicode="n" horiz-adv-x="554" 
d="M166 397v-397h-75v500h48l12 -49c15.333 12 27.833 21.333 37.5 28s25.167 13.5 46.5 20.5s44 10.5 68 10.5c46 0 84.167 -14.167 114.5 -42.5s45.5 -68.5 45.5 -120.5v-347h-75v325c0 80.667 -33.667 121 -101 121c-48 0 -88.333 -16.333 -121 -49z" />
    <glyph glyph-name="o" unicode="o" 
d="M362 394c-25.333 34 -62.334 51.001 -111.001 51.001s-83.167 -16.167 -103.5 -48.5s-30.5 -81.833 -30.5 -148.5c0 -126 46.333 -189 139 -189c48.667 0 84.834 15.167 108.501 45.5s35.5 77.666 35.5 141.999s-12.667 113.5 -38 147.5zM256.999 -5.99902
c-69.333 0 -122.5 22.5 -159.5 67.5s-55.5 108 -55.5 189s17.833 144.5 53.5 190.5s88 69 157 69s123.333 -23.333 163 -70s59.5 -110 59.5 -190s-19 -142.667 -57 -188s-91.667 -68 -161 -68z" />
    <glyph glyph-name="p" unicode="p" horiz-adv-x="546" 
d="M166 -238h-75v737h44l26 -56c28 21.333 54.167 37.833 78.5 49.5s51.166 17.5 80.499 17.5c120 0 180 -86.333 180 -259c0 -98 -21.333 -166.333 -64 -205c-38 -35.333 -81.167 -53 -129.5 -53s-95.166 16 -140.499 48v-279zM166 376l-0.00195312 -266.998
c13.333 -16 31.333 -28.667 54 -38s44.334 -14 65.001 -14c52 0 88.333 15.333 109 46s31 78.667 31 144s-10.333 114.666 -31 147.999s-47 50 -79 50c-21.333 0 -42.5 -4.33301 -63.5 -13s-36.667 -16.834 -47 -24.501s-23.166 -18.167 -38.499 -31.5z" />
    <glyph glyph-name="q" unicode="q" horiz-adv-x="542" 
d="M376 138l-0.00292969 231c-13.333 20.667 -34.666 38.5 -63.999 53.5s-56.333 22.5 -81 22.5c-39.333 0 -68.166 -15 -86.499 -45s-27.5 -78.333 -27.5 -145c0 -131.333 43.333 -197 130 -197c26 0 50.833 7.33301 74.5 22s41.834 34 54.501 58zM450.997 -240
l-75.001 0.000976562v296l-16 -16c-10.667 -10 -19.667 -17.5 -27 -22.5s-19.833 -10.333 -37.5 -16s-37.167 -8.5 -58.5 -8.5c-55.333 0 -101.666 19.667 -138.999 59s-56 100.666 -56 183.999s15.333 149.833 46 199.5s79.667 74.5 147 74.5c47.333 0 96 -22.333 146 -67
l26 57h44v-740z" />
    <glyph glyph-name="r" unicode="r" horiz-adv-x="371" 
d="M166 382l0.000976562 -381.999h-75v500h48l12 -59c32 25.333 58.667 43.166 80 53.499s45.666 15.5 72.999 15.5c13.333 0 23.333 -0.666992 30 -2l14 -4l-12 -69c-12 4 -28.333 6 -49 6c-40 0 -80.333 -19.667 -121 -59z" />
    <glyph glyph-name="s" unicode="s" horiz-adv-x="436" 
d="M72 89c43.333 -20 84.668 -30.002 124.001 -30.002s69.166 7.83301 89.499 23.5s30.5 36.5 30.5 62.5s-8.66699 46.167 -26 60.5s-38.5 25.5 -63.5 33.5s-50 16.667 -75 26s-46.167 23.333 -63.5 42s-26 42.334 -26 71.001c0 42 13.667 74.5 41 97.5
s64.333 34.5 111 34.5s90 -7 130 -21l7 -3l-13 -64c-40 15.333 -77.167 23 -111.5 23s-57.833 -5.33301 -70.5 -16s-19 -28.667 -19 -54c0 -16 8.66699 -29.667 26 -41s38.5 -21.166 63.5 -29.499s50 -18 75 -29s46.167 -27.5 63.5 -49.5s26 -49 26 -81
c0 -46.667 -16.333 -83.5 -49 -110.5s-77.667 -40.5 -135 -40.5s-108.333 13 -153 39z" />
    <glyph glyph-name="t" unicode="t" horiz-adv-x="346" 
d="M103 108v331.999h-68v60h69v143h75v-143h122v-60h-123v-318c0 -44.667 22.667 -67 68 -67c10.667 0 27 2 49 6l11 -54c-27.333 -8.66699 -55.5 -13 -84.5 -13s-56 8.83301 -81 26.5s-37.5 46.834 -37.5 87.501z" />
    <glyph glyph-name="u" unicode="u" horiz-adv-x="544" 
d="M377 127l0.000976562 372.998h76v-500h-44l-25 59c-53.333 -43.333 -104.333 -65 -153 -65s-85.834 14.167 -111.501 42.5s-38.5 68.5 -38.5 120.5v343h75v-331c0 -39.333 5.83301 -67.666 17.5 -84.999s31 -26 58 -26s54.5 7.33301 82.5 22s49 30.334 63 47.001z" />
    <glyph glyph-name="v" unicode="v" horiz-adv-x="445" 
d="M434 501l-169 -501h-86l-168 501h85l127 -421l128 421h83z" />
    <glyph glyph-name="w" unicode="w" horiz-adv-x="679" 
d="M157 0l-146 500h78l111 -421l103 421h74l111 -425l102 425h78l-137 -500h-88l-103 395l-97 -395h-86z" />
    <glyph glyph-name="x" unicode="x" horiz-adv-x="436" 
d="M113 501l105 -177l105 177h83l-147 -246l153 -255h-83l-111 198l-111 -198h-83l153 255l-147 246h83z" />
    <glyph glyph-name="y" unicode="y" horiz-adv-x="445" 
d="M180 -10l-169 510h85l127 -420l128 420h83l-172 -500c-22 -64.667 -46.333 -114.667 -73 -150s-61 -64 -103 -86l-28 52c26.667 15.333 51.667 38 75 68s39 65.333 47 106z" />
    <glyph glyph-name="z" unicode="z" horiz-adv-x="421" 
d="M49 500h307v-60l-220 -375h232v-65h-319v60l220 375h-220v65z" />
    <glyph glyph-name="braceleft" unicode="{" horiz-adv-x="356" 
d="M124 145c0 88.667 -31.333 133 -94 133v46c36 0 60.667 10.167 74 30.5s20 52.5 20 96.5v150c0 133.333 60.333 200 181 200h21v-64h-20c-41.333 0 -69.5 -10.667 -84.5 -32s-22.5 -59.333 -22.5 -114v-153c0 -46 -4.66699 -77.667 -14 -95s-30 -30.333 -62 -39
c29.333 -6 49.333 -19 60 -39s16 -51 16 -93v-151c0 -62 8 -103.833 24 -125.5s44.667 -32.5 86 -32.5h17v-64h-23c-57.333 0 -101.5 15 -132.5 45s-46.5 80.333 -46.5 151v150z" />
    <glyph glyph-name="bar" unicode="|" horiz-adv-x="291" 
d="M183 -203h-75v1003h75v-1003z" />
    <glyph glyph-name="braceright" unicode="}" horiz-adv-x="356" 
d="M232 145v-150c0 -70.667 -15.5 -121 -46.5 -151s-75.167 -45 -132.5 -45h-23v64h17c41.333 0 70 10.833 86 32.5s24 63.5 24 125.5v151c0 42 5.33301 73 16 93s30.667 33 60 39c-32 8.66699 -52.667 21.667 -62 39s-14 49 -14 95v153c0 54.667 -7.5 92.667 -22.5 114
s-43.167 32 -84.5 32h-20v64h21c120.667 0 181 -66.667 181 -200v-150c0 -44 6.66699 -76.167 20 -96.5s38 -30.5 74 -30.5v-46c-62.667 0 -94 -44.333 -94 -133z" />
    <glyph glyph-name="asciitilde" unicode="~" horiz-adv-x="527" 
d="M473 308c-12 -26 -28.333 -46.167 -49 -60.5s-44.834 -21.5 -72.501 -21.5s-59.5 9.83301 -95.5 29.5s-67 29.5 -93 29.5s-54 -15 -84 -45l-25 47c12.667 18.667 29.5 34 50.5 46s45 18 72 18s58.5 -10 94.5 -30s66.833 -30 92.5 -30s53.834 15.333 84.501 46z" />
    <glyph glyph-name="uni00A0" unicode="&#xa0;" horiz-adv-x="400" 
 />
    <glyph glyph-name="exclamdown" unicode="&#xa1;" horiz-adv-x="266" 
d="M95 404h75v-511h-75v511zM96 594h75v-93h-75v93z" />
    <glyph glyph-name="cent" unicode="&#xa2;" horiz-adv-x="381" 
d="M325 173l12.999 -63c-41.333 -12 -79.666 -18 -114.999 -18v-92h-65v94c-76 24 -114 93.667 -114 209s38 184 114 206v97h65v-96c34.667 0 73.334 -6.33301 116.001 -19l-21 -60c-29.333 8.66699 -57 13 -83 13c-42.667 0 -72.667 -10.167 -90 -30.5
s-26 -56.5 -26 -108.5s8.16699 -89.5 24.5 -112.5s42.166 -34.5 77.499 -34.5s70 5 104 15z" />
    <glyph glyph-name="sterling" unicode="&#xa3;" horiz-adv-x="540" 
d="M203 415l167 0.000976562v-65h-167v-285h272v-65h-347v350h-68v65h68v181c0 40.667 13 70 39 88s57.333 27 94 27c20 0 44.667 -4.66699 74 -14l-11 -54c-22 4 -41.167 6 -57.5 6s-31 -6.33301 -44 -19s-19.5 -31.334 -19.5 -56.001v-159z" />
    <glyph glyph-name="currency" unicode="&#xa4;" horiz-adv-x="608" 
d="M440 101c-36 -26.667 -82.668 -40 -140.001 -40s-103.666 14.667 -138.999 44l-55 -55l-45 46l58 58c-22 37.333 -33 83.333 -33 138s9.33301 100.334 28 137.001l-59 60l53 53l54 -54c36 27.333 82.833 41 140.5 41s105.5 -16 143.5 -48l63 63l46 -46l-66 -66
c23.333 -37.333 35 -82.833 35 -136.5s-11 -99.834 -33 -138.501l62 -62l-53 -53zM299.999 464c-48 0 -83.999 -16 -107.999 -48s-36 -72.833 -36 -122.5s13.333 -90 40 -121s63.167 -46.5 109.5 -46.5s82.666 14.5 108.999 43.5s39.5 69.333 39.5 121
s-13.667 93.5 -41 125.5s-65 48 -113 48z" />
    <glyph glyph-name="yen" unicode="&#xa5;" horiz-adv-x="610" 
d="M340 236v-87h186v-65h-186v-84h-75v84h-168v65h168v87h-168v65h168l-221 399h83l178 -334l184 334h81l-230 -399h186v-65h-186z" />
    <glyph glyph-name="brokenbar" unicode="&#xa6;" horiz-adv-x="314" 
d="M185 413h-65v393h65v-393zM185 -194h-65v395h65v-395z" />
    <glyph glyph-name="section" unicode="&#xa7;" horiz-adv-x="604" 
d="M246 436c-63.333 -41.333 -94.999 -82.668 -94.999 -124.001c0 -25.333 11.333 -46.333 34 -63s55 -33.5 97 -50.5s72.333 -31.5 91 -43.5c3.33301 2.66699 8.66602 6.5 15.999 11.5s12.333 8.5 15 10.5l12.5 9.5c5.66699 4.33301 9.5 8 11.5 11s4.83301 7 8.5 12
s6.16699 9.83301 7.5 14.5c3.33301 12.667 5 26.834 5 42.501s-4 30.667 -12 45s-19.833 26.833 -35.5 37.5s-31.167 20.167 -46.5 28.5l-56 29c-22 11 -39.667 20.833 -53 29.5zM147.001 -49.002c46 -28.667 91.666 -42.999 136.999 -42.999s78.5 8.33301 99.5 25
s31.5 39 31.5 67s-11.667 51.833 -35 71.5s-51.5 36 -84.5 49l-99.5 41c-33.333 14.333 -61.666 34.166 -84.999 59.499s-35 55.666 -35 90.999c0 56.667 39.667 111.667 119 165c-24.667 24.667 -37 53 -37 85c0 50.667 14.5 88 43.5 112s72.833 36 131.5 36
c40.667 0 79 -6.66699 115 -20l17 -7l-12 -62c-39.333 16 -76.333 24 -111 24c-72 0 -108 -28.667 -108 -86c0 -34.667 34 -69 102 -103c28.667 -14 57.167 -28.833 85.5 -44.5s52.5 -36 72.5 -61s30 -53.167 30 -84.5s-7 -57.666 -21 -78.999s-39 -44.666 -75 -69.999
c41.333 -30.667 62 -69.334 62 -116.001s-18.5 -84.667 -55.5 -114s-88.5 -44 -154.5 -44c-24.667 0 -51.5 4.33301 -80.5 13s-52.833 18.667 -71.5 30z" />
    <glyph glyph-name="dieresis" unicode="&#xa8;" horiz-adv-x="513" 
d="M123 709v106h71v-106h-71zM302 709v106h71v-106h-71z" />
    <glyph glyph-name="copyright" unicode="&#xa9;" horiz-adv-x="551" 
d="M351 162l9.00098 -41.001c-28 -8 -54.333 -12 -79 -12c-40 0 -70 13 -90 39s-30 61.833 -30 107.5s10.5 80.5 31.5 104.5s51.5 36 91.5 36c10.667 0 35.667 -4.33301 75 -13l-16 -40c-22.667 6 -40 9 -52 9c-29.333 0 -49.833 -6.66699 -61.5 -20
s-17.5 -37.666 -17.5 -72.999c0 -71.333 26 -107 78 -107c21.333 0 41.666 3.33301 60.999 10zM386.501 415.999c-28.333 42 -67.332 63.001 -116.999 63.001s-86.834 -20.833 -111.501 -62.5s-37 -95.834 -37 -162.501s13.833 -120.5 41.5 -161.5s65.5 -61.5 113.5 -61.5
s85.5 19.5 112.5 58.5s40.5 92.667 40.5 161s-14.167 123.5 -42.5 165.5zM428.502 54.5c-37 -49 -89 -73.501 -156 -73.501s-118.167 24.333 -153.5 73s-53 115.667 -53 201s17 152.333 51 201s84.5 73 151.5 73s119.667 -24.667 158 -74s57.5 -116.166 57.5 -200.499
s-18.5 -151 -55.5 -200z" />
    <glyph glyph-name="ordfeminine" unicode="&#xaa;" horiz-adv-x="363" 
d="M293 234h-239v55h239v-55zM215 550l25.998 -1c0 38 -4.66699 62.167 -14 72.5s-31.166 15.5 -65.499 15.5s-62.5 -4.66699 -84.5 -14l-9 44c34 12 70.333 18 109 18c75.333 0 113 -37.333 113 -112v-212h-28l-16 38c-20 -16.667 -37 -27.667 -51 -33s-33.167 -8 -57.5 -8
s-44.666 8.66699 -60.999 26s-24.5 40.333 -24.5 69c0 64.667 54.333 97 163 97zM237.998 505h-33c-40.667 0 -68.167 -3.66699 -82.5 -11s-21.5 -19.333 -21.5 -36s4.16699 -29.667 12.5 -39s19.5 -14 33.5 -14c28.667 0 59 15 91 45v55z" />
    <glyph glyph-name="guillemotleft" unicode="&#xab;" horiz-adv-x="511" 
d="M436 108l-50 -19l-131 208l132 209l49 -18l-103 -189zM249 97l-51 -19l-138 219l140 221l49 -19l-109 -200z" />
    <glyph glyph-name="logicalnot" unicode="&#xac;" 
d="M467 125h-75v144h-354v65h429v-209z" />
    <glyph glyph-name="uni00AD" unicode="&#xad;" horiz-adv-x="400" 
d="M400 257h-400v65h400v-65z" />
    <glyph glyph-name="registered" unicode="&#xae;" horiz-adv-x="551" 
d="M270 662c-50 0 -87.333 -20.832 -112 -62.499s-37 -95.834 -37 -162.501s13.833 -120.5 41.5 -161.5s65.5 -61.5 113.5 -61.5s86.333 19.667 115 59s43 92.833 43 160.5s-14.833 122.667 -44.5 165s-69.5 63.5 -119.5 63.5zM428.5 237.501
c-37 -49 -89 -73.501 -156 -73.501s-118.167 24.333 -153.5 73s-53 115.667 -53 201s17 152.333 51 201s84.5 73 151.5 73s119.667 -24.667 158 -74s57.5 -116.166 57.5 -200.499s-18.5 -151 -55.5 -200zM238 426l-12 -0.00390625v-121h-40v279h86c56.667 0 85 -24 85 -72
c0 -15.333 -5.66699 -29.666 -17 -42.999s-25 -20.666 -41 -21.999c12.667 -3.33301 21.5 -7.66602 26.5 -12.999s12.167 -17 21.5 -35l42 -94h-46l-37 79c-8 16.667 -16.667 27.834 -26 33.501s-23.333 8.5 -42 8.5zM273 549.996h-47v-77h41c33.333 0 50 12.833 50 38.5
s-14.667 38.5 -44 38.5z" />
    <glyph glyph-name="macron" unicode="&#xaf;" horiz-adv-x="497" 
d="M88 614v65h317v-65h-317z" />
    <glyph glyph-name="degree" unicode="&#xb0;" horiz-adv-x="452" 
d="M343.5 728c32.333 -32 48.5 -71.167 48.5 -117.5s-16.333 -85.666 -49 -117.999s-72.167 -48.5 -118.5 -48.5s-85.666 16 -117.999 48s-48.5 71.167 -48.5 117.5s16.333 85.666 49 117.999s72.167 48.5 118.5 48.5s85.666 -16 117.999 -48zM300 533
c20.667 21.333 30.999 47.501 30.999 78.501s-10.5 57.167 -31.5 78.5s-46.167 32 -75.5 32s-54.5 -10.667 -75.5 -32s-31.5 -47.333 -31.5 -78s10.5 -56.834 31.5 -78.501s46.333 -32.5 76 -32.5s54.834 10.667 75.501 32z" />
    <glyph glyph-name="plusminus" unicode="&#xb1;" horiz-adv-x="503" 
d="M458 357h-173v-193h-75v193h-164v65h164v200h75v-200h173v-65zM458 -1h-412v65h412v-65z" />
    <glyph glyph-name="twosuperior" unicode="&#xb2;" horiz-adv-x="436" 
d="M340 370l-9.00098 -47h-230v32c41.333 41.333 70.333 71 87 89c45.333 50 68 89.667 68 119c0 37.333 -20.333 56 -61 56c-26.667 0 -49.667 -2.66699 -69 -8l-11 -3l5 40c32.667 9.33301 64.834 14 96.501 14s55.834 -7.16699 72.501 -21.5s25 -35.833 25 -64.5
s-10.333 -59 -31 -91s-56.334 -70.333 -107.001 -115h164z" />
    <glyph glyph-name="threesuperior" unicode="&#xb3;" horiz-adv-x="425" 
d="M141 505l41 0.000976562c24 0 42.667 5.5 56 16.5s20 26 20 45s-5 31.667 -15 38s-24.667 9.5 -44 9.5c-29.333 0 -54.333 -6 -75 -18l-9 -5l-10 46c27.333 16.667 58.5 25 93.5 25s61.667 -8.33301 80 -25s27.5 -37.834 27.5 -63.501s-6.5 -47 -19.5 -64
s-29.833 -27.5 -50.5 -31.5c24 -3.33301 43.667 -12.5 59 -27.5s23 -36.5 23 -64.5s-11.167 -51.5 -33.5 -70.5s-53.5 -28.5 -93.5 -28.5c-16.667 0 -33 2.16699 -49 6.5s-27.667 8.5 -35 12.5l-11 6l13 43c20 -12 43.667 -18 71 -18c58 0 87 17.333 87 52
c0 42 -29 63 -87 63h-39v53z" />
    <glyph glyph-name="acute" unicode="&#xb4;" horiz-adv-x="404" 
d="M159 571l-58 21l113 141l75 -30z" />
    <glyph glyph-name="mu" unicode="&#xb5;" horiz-adv-x="558" 
d="M167 10l0.000976562 -246h-75v736h76v-331c0 -39.333 5.83301 -67.833 17.5 -85.5s32.167 -26.5 61.5 -26.5c46.667 0 94 23.333 142 70v373h76v-500h-44l-25 59c-20.667 -14.667 -36.667 -25.667 -48 -33c-32.667 -21.333 -65.667 -32 -99 -32
c-26.667 0 -50.334 4 -71.001 12z" />
    <glyph glyph-name="mu" unicode="&#x3bc;" horiz-adv-x="558" 
d="M167 10l0.000976562 -246h-75v736h76v-331c0 -39.333 5.83301 -67.833 17.5 -85.5s32.167 -26.5 61.5 -26.5c46.667 0 94 23.333 142 70v373h76v-500h-44l-25 59c-20.667 -14.667 -36.667 -25.667 -48 -33c-32.667 -21.333 -65.667 -32 -99 -32
c-26.667 0 -50.334 4 -71.001 12z" />
    <glyph glyph-name="paragraph" unicode="&#xb6;" horiz-adv-x="599" 
d="M308 -203h-65v561c-52 0 -93.833 16.667 -125.5 50s-47.5 74.333 -47.5 123s16 90.667 48 126s82.333 53 151 53h265v-60h-70v-853h-65v853h-91v-853z" />
    <glyph glyph-name="periodcentered" unicode="&#xb7;" horiz-adv-x="181" 
d="M128 247h-75v103h75v-103z" />
    <glyph glyph-name="cedilla" unicode="&#xb8;" horiz-adv-x="377" 
d="M272 0c0 -32 -3.83203 -58.666 -11.499 -79.999s-24.834 -53.666 -51.501 -96.999l-49 31c17.333 35.333 28.5 61.166 33.5 77.499s7.5 39.166 7.5 68.499h71z" />
    <glyph glyph-name="onesuperior" unicode="&#xb9;" horiz-adv-x="378" 
d="M206 662h-50l-103 -63l20 -49l83 50v-259h50v321zM86 316v48h190v-48h-190z" />
    <glyph glyph-name="ordmasculine" unicode="&#xba;" horiz-adv-x="370" 
d="M301 234h-239v54h239v-54zM236 616c-12 22.667 -29.833 34 -53.5 34s-41.5 -11.333 -53.5 -34s-18 -52 -18 -88c0 -80 23.333 -120 70 -120c48.667 0 73 40 73 120c0 36 -6 65.333 -18 88zM181 700c88.667 0 133 -56.998 133 -170.998s-45 -171 -135 -171
c-43.333 0 -75.5 15.167 -96.5 45.5s-31.5 70.666 -31.5 120.999s10.667 92.166 32 125.499s54 50 98 50z" />
    <glyph glyph-name="guillemotright" unicode="&#xbb;" horiz-adv-x="511" 
d="M75 488l50 19l131 -208l-132 -209l-49 18l103 189zM262 499l51 19l138 -219l-140 -221l-49 19l109 200z" />
    <glyph glyph-name="onequarter" unicode="&#xbc;" horiz-adv-x="884" 
d="M653 688l-408 -688h-73l408 688h73zM692 0v85h-203v41l168 301h58l-163 -292h140v115h51v-116h68v-49h-68v-85h-51zM88 316v48h69v236l-82 -50l-20 49l103 63h50v-298h70v-48h-190z" />
    <glyph glyph-name="onehalf" unicode="&#xbd;" horiz-adv-x="816" 
d="M653 688l-408 -688h-73l408 688h73zM762 46l-9 -46h-230v33l87.5 89c16.333 17.333 31.666 37 45.999 59s21.5 41.333 21.5 58c0 37.333 -20.333 56 -61 56c-26.667 0 -49.667 -2.66699 -69 -8l-11 -3l5 40c32.667 9.33301 64.834 14 96.501 14
s55.834 -7.16699 72.501 -21.5s25 -35.833 25 -64.5s-10.333 -59 -31 -91s-56.334 -70.333 -107.001 -115h164zM75 316v48h70v236l-83 -50l-20 49l103 63h50v-298h70v-48h-190z" />
    <glyph glyph-name="threequarters" unicode="&#xbe;" horiz-adv-x="886" 
d="M128 504l41 0.000976562c24 0 42.667 5.5 56 16.5s20 26 20 45s-5 31.667 -15 38s-24.667 9.5 -44 9.5c-32 0 -56.667 -5.66699 -74 -17l-10 -6l-10 46c27.333 16.667 58.5 25 93.5 25s61.667 -8.33301 80 -25s27.5 -37.834 27.5 -63.501s-6.5 -47 -19.5 -64
s-29.833 -27.5 -50.5 -31.5c24 -3.33301 43.667 -12.5 59 -27.5s23 -36.5 23 -64.5s-11.167 -51.5 -33.5 -70.5s-53.5 -28.5 -93.5 -28.5c-16.667 0 -33 2 -49 6s-27.667 8 -35 12l-11 7l13 43c20 -12 43.333 -18 70 -18c58.667 0 88 17.333 88 52c0 42 -29 63 -87 63h-39
v53zM692 0.000976562v85h-203v41l168 301h58l-163 -292h140v115h52v-116h67v-49h-68v-85h-51zM653 688.001l-408 -688h-73l408 688h73z" />
    <glyph glyph-name="questiondown" unicode="&#xbf;" horiz-adv-x="463" 
d="M122 176c15.333 16 31.001 31.332 47.001 45.999c38 36 57 77 57 123v63h74v-58c0 -29.333 -5.5 -56.166 -16.5 -80.499s-24.333 -44.5 -40 -60.5l-47.5 -47c-37.333 -36 -56 -73 -56 -111c0 -62 37 -93 111 -93c43.333 0 83.666 6.33301 120.999 19l11 -58
c-54 -18 -105.167 -27 -153.5 -27s-87.833 13.5 -118.5 40.5s-46 65 -46 114s19 92.167 57 129.5zM227.001 607.999h75v-98h-75v98z" />
    <glyph glyph-name="Agrave" unicode="&#xc0;" horiz-adv-x="579" 
d="M566 0h-84l-70 221h-251l-69 -221h-79l230 700h91zM395 286l-107 338l-108 -338h215zM313 753h-61l-98 124h84z" />
    <glyph glyph-name="Aacute" unicode="&#xc1;" horiz-adv-x="579" 
d="M566 0h-84l-70 221h-251l-69 -221h-79l230 700h91zM395 286l-107 338l-108 -338h215zM254 752l75 124h84l-98 -124h-61z" />
    <glyph glyph-name="Acircumflex" unicode="&#xc2;" horiz-adv-x="579" 
d="M566 0h-84l-70 221h-251l-69 -221h-79l230 700h91zM395 286l-107 338l-108 -338h215zM268 880h47l136 -100l-19 -29l-141 75l-142 -75l-19 29z" />
    <glyph glyph-name="Atilde" unicode="&#xc3;" horiz-adv-x="579" 
d="M445 827c-14 -18.667 -29.833 -35 -47.5 -49s-33 -21 -46 -21s-38.833 9.16699 -77.5 27.5s-62.334 27.5 -71.001 27.5s-17.834 -3.16699 -27.501 -9.5s-17.167 -12.5 -22.5 -18.5l-8 -10l-33 26c14 18 29.667 34.167 47 48.5s32.5 21.5 45.5 21.5
s38.833 -9.16699 77.5 -27.5s62.334 -27.5 71.001 -27.5s17.834 3.16699 27.501 9.5s17.167 12.833 22.5 19.5l8 9zM566 0h-84l-70 221h-251l-69 -221h-79l230 700h91zM395 286l-107 338l-108 -338h215z" />
    <glyph glyph-name="Adieresis" unicode="&#xc4;" horiz-adv-x="579" 
d="M566 0h-84l-70 221h-251l-69 -221h-79l230 700h91zM395 286l-107 338l-108 -338h215zM165 755v106h71v-106h-71zM344 755v106h71v-106h-71z" />
    <glyph glyph-name="Aring" unicode="&#xc5;" horiz-adv-x="579" 
d="M566 0h-84l-70 221h-251l-69 -221h-79l230 700h91zM395 286l-107 338l-108 -338h215zM289 972c36.667 0 64.666 -10.167 83.999 -30.5s29 -47.166 29 -80.499s-9.33301 -59.833 -28 -79.5s-46.667 -29.5 -84 -29.5s-65.333 9.83301 -84 29.5s-28 46.167 -28 79.5
s9.33301 60.166 28 80.499s46.334 30.5 83.001 30.5zM289.999 928c-37.333 0 -56 -21.667 -56 -65c0 -20.667 4 -36.667 12 -48s22.833 -17 44.5 -17s36.667 5.66699 45 17s12.5 27.333 12.5 48c0 43.333 -19.333 65 -58 65z" />
    <glyph glyph-name="AE" unicode="&#xc6;" horiz-adv-x="851" 
d="M777 0h-397v221h-180l-108 -221h-79l328 700h436v-65h-322v-222h297v-67h-297v-281h322v-65zM380 634l-150 -348h150v348z" />
    <glyph glyph-name="Ccedilla" unicode="&#xc7;" horiz-adv-x="584" 
d="M379 -5c0 -32 -3.83301 -58.668 -11.5 -80.001s-24.834 -53.666 -51.501 -96.999l-49 31c17.333 34.667 28.333 60.167 33 76.5s7 39.833 7 70.5c-83.333 8.66699 -147 44.667 -191 108s-66 148 -66 254s26.833 190.833 80.5 254.5s128.834 95.5 225.501 95.5
c56 0 108.667 -9.66699 158 -29l-18 -62c-40.667 17.333 -88.667 26 -144 26c-70 0 -125.333 -25.333 -166 -76s-61 -120.5 -61 -209.5s19.167 -161 57.5 -216s91.833 -82.5 160.5 -82.5c48 0 105 13 171 39l20 -52c-30 -18.667 -81.667 -35.667 -155 -51z" />
    <glyph glyph-name="Egrave" unicode="&#xc8;" horiz-adv-x="542" 
d="M468 0h-377v700h377v-65h-302v-222h277v-67h-277v-281h302v-65zM330 753h-61l-98 124h84z" />
    <glyph glyph-name="Eacute" unicode="&#xc9;" horiz-adv-x="542" 
d="M468 0h-377v700h377v-65h-302v-222h277v-67h-277v-281h302v-65zM215 752l75 124h84l-98 -124h-61z" />
    <glyph glyph-name="Ecircumflex" unicode="&#xca;" horiz-adv-x="543" 
d="M468 0h-377v700h377v-65h-302v-222h277v-67h-277v-281h302v-65zM238 880h47l136 -100l-19 -29l-141 75l-142 -75l-19 29z" />
    <glyph glyph-name="Edieresis" unicode="&#xcb;" horiz-adv-x="542" 
d="M468 0h-377v700h377v-65h-302v-222h277v-67h-277v-281h302v-65zM151 755v106h71v-106h-71zM330 755v106h71v-106h-71z" />
    <glyph glyph-name="Igrave" unicode="&#xcc;" horiz-adv-x="253" 
d="M187 0h-75v700h75v-700zM181 753h-61l-98 124h84z" />
    <glyph glyph-name="Iacute" unicode="&#xcd;" horiz-adv-x="254" 
d="M138 0h-75v700h75v-700zM70 753l75 124h84l-98 -124h-61z" />
    <glyph glyph-name="Icircumflex" unicode="&#xce;" horiz-adv-x="312" 
d="M196 0h-75v700h75v-700zM137 883h47l136 -100l-19 -29l-141 75l-142 -75l-19 29z" />
    <glyph glyph-name="Idieresis" unicode="&#xcf;" horiz-adv-x="226" 
d="M149 0h-75v700h75v-700zM-13 755v106h71v-106h-71zM166 755v106h71v-106h-71z" />
    <glyph glyph-name="Eth" unicode="&#xd0;" horiz-adv-x="695" 
d="M119 317l-83.001 0.000976562v65h83v318h177c99.333 0 179 -30.333 239 -91s90 -138.667 90 -234c0 -112.667 -32.667 -203.334 -98 -272.001s-152.666 -103 -261.999 -103h-146v317zM199.999 317.001l0.000976562 -252.002h74c75.333 0 139.166 28.333 191.499 85
s78.5 134.334 78.5 233.001c0 78.667 -24 140.334 -72 185.001s-105.333 67 -172 67h-100v-253h176v-65h-176z" />
    <glyph glyph-name="Ntilde" unicode="&#xd1;" horiz-adv-x="679" 
d="M492 831v-7c-14 -18.667 -29.833 -35 -47.5 -49s-33 -21 -46 -21s-38.833 9.16699 -77.5 27.5s-62.334 27.5 -71.001 27.5s-17.834 -3.16699 -27.501 -9.5s-17.167 -12.833 -22.5 -19.5l-8 -9l-33 33c14 18 29.667 34.167 47 48.5s32.5 21.5 45.5 21.5
s38.833 -9.16699 77.5 -27.5s62.334 -27.5 71.001 -27.5s17.834 3.16699 27.501 9.5s17.167 12.833 22.5 19.5l8 9zM588 -1h-82l-337 561v-560h-78v700h78l344 -582v582h75v-701z" />
    <glyph glyph-name="Ograve" unicode="&#xd2;" horiz-adv-x="648" 
d="M323 -5c-91.333 0 -160.334 33.8311 -207.001 101.498s-70 153.834 -70 258.501s23.5 190 70.5 256s116 99 207 99s160.167 -33 207.5 -99s71 -151.333 71 -256c0 -143.333 -40.667 -246.666 -122 -309.999c-43.333 -33.333 -95.666 -50 -156.999 -50zM324.999 644.998
c-68 0 -118.833 -28.333 -152.5 -85s-50.5 -126 -50.5 -208s17.167 -151 51.5 -207s84.833 -84 151.5 -84s117 28.333 151 85s51 128 51 214c0 108 -30.333 188.667 -91 242c-31.333 28.667 -68.333 43 -111 43zM335.999 752.998h-61l-98 124h84z" />
    <glyph glyph-name="Oacute" unicode="&#xd3;" horiz-adv-x="648" 
d="M323 -5c-91.333 0 -160.334 33.8311 -207.001 101.498s-70 153.834 -70 258.501s23.5 190 70.5 256s116 99 207 99s160.167 -33 207.5 -99s71 -151.333 71 -256c0 -143.333 -40.667 -246.666 -122 -309.999c-43.333 -33.333 -95.666 -50 -156.999 -50zM324.999 644.998
c-68 0 -118.833 -28.333 -152.5 -85s-50.5 -126 -50.5 -208s17.167 -151 51.5 -207s84.833 -84 151.5 -84s117 28.333 151 85s51 128 51 214c0 108 -30.333 188.667 -91 242c-31.333 28.667 -68.333 43 -111 43zM275.999 752.998l75 124h84l-98 -124h-61z" />
    <glyph glyph-name="Ocircumflex" unicode="&#xd4;" horiz-adv-x="648" 
d="M323 -5c-91.333 0 -160.334 33.8311 -207.001 101.498s-70 153.834 -70 258.501s23.5 190 70.5 256s116 99 207 99s160.167 -33 207.5 -99s71 -151.333 71 -256c0 -143.333 -40.667 -246.666 -122 -309.999c-43.333 -33.333 -95.666 -50 -156.999 -50zM324.999 644.998
c-68 0 -118.833 -28.333 -152.5 -85s-50.5 -126 -50.5 -208s17.167 -151 51.5 -207s84.833 -84 151.5 -84s117 28.333 151 85s51 128 51 214c0 108 -30.333 188.667 -91 242c-31.333 28.667 -68.333 43 -111 43zM300.999 882.998h47l136 -100l-19 -29l-141 75l-142 -75
l-19 29z" />
    <glyph glyph-name="Otilde" unicode="&#xd5;" horiz-adv-x="648" 
d="M467 824c-14 -18.667 -29.833 -35 -47.5 -49s-33 -21 -46 -21s-38.833 9.16699 -77.5 27.5s-62.334 27.5 -71.001 27.5s-17.834 -3.16699 -27.501 -9.5s-17.167 -12.833 -22.5 -19.5l-8 -9l-33 26c14 18 29.667 34.167 47 48.5s32.5 21.5 45.5 21.5
s38.833 -9.16699 77.5 -27.5s62.334 -27.5 71.001 -27.5s17.834 3.16699 27.501 9.5s17.167 12.5 22.5 18.5l8 10zM323 -5c-91.333 0 -160.334 33.8311 -207.001 101.498s-70 153.834 -70 258.501s23.5 190 70.5 256s116 99 207 99s160.167 -33 207.5 -99
s71 -151.333 71 -256c0 -143.333 -40.667 -246.666 -122 -309.999c-43.333 -33.333 -95.666 -50 -156.999 -50zM324.999 644.998c-68 0 -118.833 -28.333 -152.5 -85s-50.5 -126 -50.5 -208s17.167 -151 51.5 -207s84.833 -84 151.5 -84s117 28.333 151 85s51 128 51 214
c0 108 -30.333 188.667 -91 242c-31.333 28.667 -68.333 43 -111 43z" />
    <glyph glyph-name="Odieresis" unicode="&#xd6;" horiz-adv-x="648" 
d="M323 -5c-91.333 0 -160.334 33.8311 -207.001 101.498s-70 153.834 -70 258.501s23.5 190 70.5 256s116 99 207 99s160.167 -33 207.5 -99s71 -151.333 71 -256c0 -143.333 -40.667 -246.666 -122 -309.999c-43.333 -33.333 -95.666 -50 -156.999 -50zM324.999 644.998
c-68 0 -118.833 -28.333 -152.5 -85s-50.5 -126 -50.5 -208s17.167 -151 51.5 -207s84.833 -84 151.5 -84s117 28.333 151 85s51 128 51 214c0 108 -30.333 188.667 -91 242c-31.333 28.667 -68.333 43 -111 43zM198.999 753.998v106h71v-106h-71zM377.999 753.998v106h71
v-106h-71z" />
    <glyph glyph-name="multiply" unicode="&#xd7;" horiz-adv-x="608" 
d="M555 498l-202 -202l200 -201l-53 -53l-200 201l-194 -193l-45 46l193 193l-199 200l53 53l199 -200l202 202z" />
    <glyph glyph-name="Oslash" unicode="&#xd8;" horiz-adv-x="648" 
d="M210 103l178 530c-18.667 8 -39.667 12 -63 12c-68 0 -118.833 -28.333 -152.5 -85s-50.5 -125 -50.5 -205c0 -117.333 29.333 -201.333 88 -252zM449 595l-175.999 -527.002c14.667 -4.66699 31.667 -7 51 -7c67.333 0 118 28.333 152 85s51 128 51 214
c0 44.667 -6.83301 88.334 -20.5 131.001s-32.834 77.334 -57.501 104.001zM515.001 799.998l-47 -137c42 -30.667 74.833 -73 98.5 -127s35.5 -114.5 35.5 -181.5s-9.66699 -127 -29 -180s-50.5 -96.167 -93.5 -129.5s-95.167 -50 -156.5 -50c-38 0 -64.333 5.33301 -79 16
l-44 -120h-68l48 144c-44.667 29.333 -78.167 72 -100.5 128s-33.5 120 -33.5 192c0 104.667 23.5 190 70.5 256s115.833 99 206.5 99c30.667 0 60 -4.33301 88 -13l35 103h69z" />
    <glyph glyph-name="Ugrave" unicode="&#xd9;" horiz-adv-x="664" 
d="M332 -6c-78.667 0 -138.498 22.167 -179.498 66.5s-61.5 110.166 -61.5 197.499v442h76v-454c0 -59.333 14.167 -105.333 42.5 -138s68.666 -49 120.999 -49s93.166 16.167 122.499 48.5s44 78.5 44 138.5v454h76v-442c0 -87.333 -20.5 -153.166 -61.5 -197.499
s-100.833 -66.5 -179.5 -66.5zM367.002 754h-61l-98 124h84z" />
    <glyph glyph-name="Uacute" unicode="&#xda;" horiz-adv-x="664" 
d="M332 -6c-78.667 0 -138.498 22.167 -179.498 66.5s-61.5 110.166 -61.5 197.499v442h76v-454c0 -59.333 14.167 -105.333 42.5 -138s68.666 -49 120.999 -49s93.166 16.167 122.499 48.5s44 78.5 44 138.5v454h76v-442c0 -87.333 -20.5 -153.166 -61.5 -197.499
s-100.833 -66.5 -179.5 -66.5zM298.002 753l75 124h84l-98 -124h-61z" />
    <glyph glyph-name="Ucircumflex" unicode="&#xdb;" horiz-adv-x="664" 
d="M332 -6c-78.667 0 -138.498 22.167 -179.498 66.5s-61.5 110.166 -61.5 197.499v442h76v-454c0 -59.333 14.167 -105.333 42.5 -138s68.666 -49 120.999 -49s93.166 16.167 122.499 48.5s44 78.5 44 138.5v454h76v-442c0 -87.333 -20.5 -153.166 -61.5 -197.499
s-100.833 -66.5 -179.5 -66.5zM310.002 883h47l136 -100l-19 -29l-141 75l-142 -75l-19 29z" />
    <glyph glyph-name="Udieresis" unicode="&#xdc;" horiz-adv-x="664" 
d="M332 -6c-78.667 0 -138.498 22.167 -179.498 66.5s-61.5 110.166 -61.5 197.499v442h76v-454c0 -59.333 14.167 -105.333 42.5 -138s68.666 -49 120.999 -49s93.166 16.167 122.499 48.5s44 78.5 44 138.5v454h76v-442c0 -87.333 -20.5 -153.166 -61.5 -197.499
s-100.833 -66.5 -179.5 -66.5zM208.002 754v106h71v-106h-71zM387.002 754v106h71v-106h-71z" />
    <glyph glyph-name="Yacute" unicode="&#xdd;" horiz-adv-x="552" 
d="M539 700l-230 -385v-315h-75v315l-221 385h83l177 -324l185 324h81zM228 752l75 124h84l-98 -124h-61z" />
    <glyph glyph-name="Thorn" unicode="&#xde;" horiz-adv-x="546" 
d="M158 700l0.000976562 -109.997h131c75.333 -0.666992 129.666 -17.334 162.999 -50.001s50 -83.334 50 -152.001s-20.667 -119.834 -62 -153.501s-99.333 -50.5 -174 -50.5h-102v-184h-75v700h69zM255.001 526.003h-91v-278h66c68.667 0 118.667 10.333 150 31
s47 56.167 47 106.5s-13.667 86.333 -41 108s-71 32.5 -131 32.5z" />
    <glyph glyph-name="germandbls" unicode="&#xdf;" horiz-adv-x="568" 
d="M524 198c0 -66 -21.668 -116.498 -65.001 -151.498s-105 -52.5 -185 -52.5c-11.333 0 -22 1.66699 -32 5v53c71.333 0 123.666 12.833 156.999 38.5s50 65.167 50 118.5c0 34.667 -14.5 65.5 -43.5 92.5s-70.167 40.833 -123.5 41.5h-28v64h27
c35.333 0 67.5 11.667 96.5 35s43.5 52.166 43.5 86.499s-11.167 62.333 -33.5 84s-52.833 32.5 -91.5 32.5c-54 0 -89.167 -11.833 -105.5 -35.5s-24.5 -60.834 -24.5 -111.501v-498h-75v532c0 61.333 15.333 106.333 46 135s79.834 43 147.501 43
s119.834 -17.333 156.501 -52s55 -75.5 55 -122.5s-11.667 -83 -35 -108s-56 -40.167 -98 -45.5c46 -6 84.333 -25.5 115 -58.5s46 -74.833 46 -125.5z" />
    <glyph glyph-name="agrave" unicode="&#xe0;" horiz-adv-x="516" 
d="M307 299h41c0 60.667 -7.66699 100.167 -23 118.5s-49.333 27.5 -102 27.5s-97.334 -7 -134.001 -21l-14 58c56 18.667 114 28 174 28c117.333 0 176 -58.667 176 -176v-334h-44l-26 59c-30.667 -25.333 -57.167 -42.5 -79.5 -51.5s-48.166 -13.5 -77.499 -13.5
c-46.667 0 -83 13.833 -109 41.5s-39 64.167 -39 109.5c0 102.667 85.667 154 257 154zM349 236l-45.002 -0.000976562c-68 0 -114.833 -6.66699 -140.5 -20s-38.5 -34.166 -38.5 -62.499s7.33301 -51.5 22 -69.5s33.834 -27 57.501 -27s46.334 5.5 68.001 16.5
s47.167 30.167 76.5 57.5v105zM308.998 591.999l-58 -21l-130 132l75 30z" />
    <glyph glyph-name="aacute" unicode="&#xe1;" horiz-adv-x="516" 
d="M307 299h41c0 60.667 -7.66699 100.167 -23 118.5s-49.333 27.5 -102 27.5s-97.334 -7 -134.001 -21l-14 58c56 18.667 114 28 174 28c117.333 0 176 -58.667 176 -176v-334h-44l-26 59c-30.667 -25.333 -57.167 -42.5 -79.5 -51.5s-48.166 -13.5 -77.499 -13.5
c-46.667 0 -83 13.833 -109 41.5s-39 64.167 -39 109.5c0 102.667 85.667 154 257 154zM349 236l-45.002 -0.000976562c-68 0 -114.833 -6.66699 -140.5 -20s-38.5 -34.166 -38.5 -62.499s7.33301 -51.5 22 -69.5s33.834 -27 57.501 -27s46.334 5.5 68.001 16.5
s47.167 30.167 76.5 57.5v105zM296.998 570.999l-58 21l113 141l75 -30z" />
    <glyph glyph-name="acircumflex" unicode="&#xe2;" horiz-adv-x="516" 
d="M307 299h41c0 60.667 -7.66699 100.167 -23 118.5s-49.333 27.5 -102 27.5s-97.334 -7 -134.001 -21l-14 58c56 18.667 114 28 174 28c117.333 0 176 -58.667 176 -176v-334h-44l-26 59c-30.667 -25.333 -57.167 -42.5 -79.5 -51.5s-48.166 -13.5 -77.499 -13.5
c-46.667 0 -83 13.833 -109 41.5s-39 64.167 -39 109.5c0 102.667 85.667 154 257 154zM349 236l-45.002 -0.000976562c-68 0 -114.833 -6.66699 -140.5 -20s-38.5 -34.166 -38.5 -62.499s7.33301 -51.5 22 -69.5s33.834 -27 57.501 -27s46.334 5.5 68.001 16.5
s47.167 30.167 76.5 57.5v105zM228.998 711.999h47l136 -100l-19 -29l-141 75l-142 -75l-19 29z" />
    <glyph glyph-name="atilde" unicode="&#xe3;" horiz-adv-x="516" 
d="M307 299h41c0 60.667 -7.66699 100.167 -23 118.5s-49.333 27.5 -102 27.5s-97.334 -7 -134.001 -21l-14 58c56 18.667 114 28 174 28c117.333 0 176 -58.667 176 -176v-334h-44l-26 59c-30.667 -25.333 -57.167 -42.5 -79.5 -51.5s-48.166 -13.5 -77.499 -13.5
c-46.667 0 -83 13.833 -109 41.5s-39 64.167 -39 109.5c0 102.667 85.667 154 257 154zM349 236l-45.002 -0.000976562c-68 0 -114.833 -6.66699 -140.5 -20s-38.5 -34.166 -38.5 -62.499s7.33301 -51.5 22 -69.5s33.834 -27 57.501 -27s46.334 5.5 68.001 16.5
s47.167 30.167 76.5 57.5v105zM418.998 656.999v-7c-14 -18.667 -29.833 -35 -47.5 -49s-33 -21 -46 -21s-38.833 9.16699 -77.5 27.5s-62.334 27.5 -71.001 27.5s-17.834 -3.16699 -27.501 -9.5s-17.167 -12.833 -22.5 -19.5l-8 -9l-33 33c14 18 29.667 34.167 47 48.5
s32.5 21.5 45.5 21.5s38.833 -9.16699 77.5 -27.5s62.334 -27.5 71.001 -27.5s17.834 3.16699 27.501 9.5s17.167 12.833 22.5 19.5l8 9z" />
    <glyph glyph-name="adieresis" unicode="&#xe4;" horiz-adv-x="516" 
d="M307 299h41c0 60.667 -7.66699 100.167 -23 118.5s-49.333 27.5 -102 27.5s-97.334 -7 -134.001 -21l-14 58c56 18.667 114 28 174 28c117.333 0 176 -58.667 176 -176v-334h-44l-26 59c-30.667 -25.333 -57.167 -42.5 -79.5 -51.5s-48.166 -13.5 -77.499 -13.5
c-46.667 0 -83 13.833 -109 41.5s-39 64.167 -39 109.5c0 102.667 85.667 154 257 154zM349 236l-45.002 -0.000976562c-68 0 -114.833 -6.66699 -140.5 -20s-38.5 -34.166 -38.5 -62.499s7.33301 -51.5 22 -69.5s33.834 -27 57.501 -27s46.334 5.5 68.001 16.5
s47.167 30.167 76.5 57.5v105zM126.998 593.999v106h71v-106h-71zM305.998 593.999v106h71v-106h-71z" />
    <glyph glyph-name="aring" unicode="&#xe5;" horiz-adv-x="516" 
d="M307 299h41c0 60.667 -7.66699 100.167 -23 118.5s-49.333 27.5 -102 27.5s-97.334 -7 -134.001 -21l-14 58c56 18.667 114 28 174 28c117.333 0 176 -58.667 176 -176v-334h-44l-26 59c-30.667 -25.333 -57.167 -42.5 -79.5 -51.5s-48.166 -13.5 -77.499 -13.5
c-46.667 0 -83 13.833 -109 41.5s-39 64.167 -39 109.5c0 102.667 85.667 154 257 154zM349 236l-45.002 -0.000976562c-68 0 -114.833 -6.66699 -140.5 -20s-38.5 -34.166 -38.5 -62.499s7.33301 -51.5 22 -69.5s33.834 -27 57.501 -27s46.334 5.5 68.001 16.5
s47.167 30.167 76.5 57.5v105zM252.998 771.999c36.667 0 64.666 -10.167 83.999 -30.5s29 -47.166 29 -80.499s-9.33301 -59.833 -28 -79.5s-46.667 -29.5 -84 -29.5s-65.333 9.83301 -84 29.5s-28 46.167 -28 79.5s9.33301 60.166 28 80.499s46.334 30.5 83.001 30.5z
M253.997 727.999c-37.333 0 -56 -21.667 -56 -65c0 -20.667 4 -36.667 12 -48s22.833 -17 44.5 -17s36.667 5.66699 45 17s12.5 27.333 12.5 48c0 43.333 -19.333 65 -58 65z" />
    <glyph glyph-name="ae" unicode="&#xe6;" horiz-adv-x="789" 
d="M349 236l-45.002 -0.000976562c-68 0 -114.833 -6.66699 -140.5 -20s-38.5 -34.166 -38.5 -62.499s7.33301 -51.5 22 -69.5s33.834 -27 57.501 -27s46.334 5.5 68.001 16.5s47.167 30.167 76.5 57.5v105zM383.998 83.999c-57.333 -60 -119.33 -89.998 -185.997 -89.998
c-46.667 0 -83 13.833 -109 41.5s-39 64.167 -39 109.5c0 102.667 85.667 154 257 154h41c0 60.667 -7.66699 100.167 -23 118.5s-49.333 27.5 -102 27.5s-97.334 -7 -134.001 -21l-14 58c56 18.667 114 28 174 28c75.333 0 126.333 -23.333 153 -70
c38.667 46.667 87.834 70 147.501 70s106.167 -19.333 139.5 -58s50 -91 50 -157c0 -18 -0.666992 -38.333 -2 -61h-319c0 -64 15.167 -109.333 45.5 -136s68.5 -40 114.5 -40c23.333 0 39.666 1.16699 48.999 3.5s18.166 4.66602 26.499 6.99902
s14.166 4.16602 17.499 5.49902c16.667 4.66699 31 9 43 13l12 -58c-66.667 -23.333 -118.667 -35 -156 -35c-86 0 -148 30 -186 90zM423.001 291.001h244c0 49.333 -8.66699 87.333 -26 114s-47.5 40 -90.5 40s-74.5 -14.333 -94.5 -43s-31 -65.667 -33 -111z" />
    <glyph glyph-name="ccedilla" unicode="&#xe7;" horiz-adv-x="433" 
d="M221 -2l-12.999 1.99902c-54.667 10.667 -95.667 38.5 -123 83.5s-41 105.833 -41 182.5s18.667 136.5 56 179.5s92.333 64.5 165 64.5c40.667 -2.66699 84.667 -10.667 132 -24l-30 -58c-36.667 10.667 -69.667 16 -99 16c-50.667 0 -87.167 -15 -109.5 -45
s-33.5 -77.333 -33.5 -142c0 -131.333 47 -197 141 -197c37.333 0 77 6 119 18l15 -59c-5.33301 -1.33301 -42.333 -9.33301 -111 -24c0 -32 -3.83301 -58.667 -11.5 -80s-24.834 -53.666 -51.501 -96.999l-49 31c18.667 35.333 30.667 61.5 36 78.5s8 40.5 8 70.5z" />
    <glyph glyph-name="egrave" unicode="&#xe8;" horiz-adv-x="489" 
d="M438 234h-318.997c0 -64 15.167 -109.333 45.5 -136s68.5 -40 114.5 -40c23.333 0 39.666 1.16699 48.999 3.5s18.166 4.66602 26.499 6.99902s14.166 4.16602 17.499 5.49902c16.667 4.66699 31 9 43 13l12 -58c-66.667 -23.333 -118.667 -35 -156 -35
c-68.667 0 -123.667 20.833 -165 62.5s-62 104.334 -62 188.001s19.5 148.834 58.5 195.501s88.333 70 148 70s106.167 -19.333 139.5 -58s50 -91 50 -157c0 -18 -0.666992 -38.333 -2 -61zM124.003 291h244c0 49.333 -8.66699 87.333 -26 114s-47.5 40 -90.5 40
s-74.5 -14.333 -94.5 -43s-31 -65.667 -33 -111zM310.003 592l-58 -21l-130 132l75 30z" />
    <glyph glyph-name="eacute" unicode="&#xe9;" horiz-adv-x="489" 
d="M438 234h-318.997c0 -64 15.167 -109.333 45.5 -136s68.5 -40 114.5 -40c23.333 0 39.666 1.16699 48.999 3.5s18.166 4.66602 26.499 6.99902s14.166 4.16602 17.499 5.49902c16.667 4.66699 31 9 43 13l12 -58c-66.667 -23.333 -118.667 -35 -156 -35
c-68.667 0 -123.667 20.833 -165 62.5s-62 104.334 -62 188.001s19.5 148.834 58.5 195.501s88.333 70 148 70s106.167 -19.333 139.5 -58s50 -91 50 -157c0 -18 -0.666992 -38.333 -2 -61zM124.003 291h244c0 49.333 -8.66699 87.333 -26 114s-47.5 40 -90.5 40
s-74.5 -14.333 -94.5 -43s-31 -65.667 -33 -111zM240.003 571l-58 21l113 141l75 -30z" />
    <glyph glyph-name="ecircumflex" unicode="&#xea;" horiz-adv-x="489" 
d="M438 234h-318.997c0 -64 15.167 -109.333 45.5 -136s68.5 -40 114.5 -40c23.333 0 39.666 1.16699 48.999 3.5s18.166 4.66602 26.499 6.99902s14.166 4.16602 17.499 5.49902c16.667 4.66699 31 9 43 13l12 -58c-66.667 -23.333 -118.667 -35 -156 -35
c-68.667 0 -123.667 20.833 -165 62.5s-62 104.334 -62 188.001s19.5 148.834 58.5 195.501s88.333 70 148 70s106.167 -19.333 139.5 -58s50 -91 50 -157c0 -18 -0.666992 -38.333 -2 -61zM124.003 291h244c0 49.333 -8.66699 87.333 -26 114s-47.5 40 -90.5 40
s-74.5 -14.333 -94.5 -43s-31 -65.667 -33 -111zM226.003 712h47l136 -100l-19 -29l-141 75l-142 -75l-19 29z" />
    <glyph glyph-name="edieresis" unicode="&#xeb;" horiz-adv-x="489" 
d="M438 234h-318.997c0 -64 15.167 -109.333 45.5 -136s68.5 -40 114.5 -40c23.333 0 39.666 1.16699 48.999 3.5s18.166 4.66602 26.499 6.99902s14.166 4.16602 17.499 5.49902c16.667 4.66699 31 9 43 13l12 -58c-66.667 -23.333 -118.667 -35 -156 -35
c-68.667 0 -123.667 20.833 -165 62.5s-62 104.334 -62 188.001s19.5 148.834 58.5 195.501s88.333 70 148 70s106.167 -19.333 139.5 -58s50 -91 50 -157c0 -18 -0.666992 -38.333 -2 -61zM124.003 291h244c0 49.333 -8.66699 87.333 -26 114s-47.5 40 -90.5 40
s-74.5 -14.333 -94.5 -43s-31 -65.667 -33 -111zM123.003 595v106h71v-106h-71zM302.003 595v106h71v-106h-71z" />
    <glyph glyph-name="igrave" unicode="&#xec;" horiz-adv-x="226" 
d="M77 0v500h73v-500h-73zM152 586l-58 -21l-130 132l75 30z" />
    <glyph glyph-name="iacute" unicode="&#xed;" horiz-adv-x="226" 
d="M77 0v500h73v-500h-73zM139 571l-58 21l113 141l75 -30z" />
    <glyph glyph-name="icircumflex" unicode="&#xee;" horiz-adv-x="228" 
d="M77 0v500h75v-500h-75zM92 712h47l136 -100l-19 -29l-141 75l-142 -75l-19 29z" />
    <glyph glyph-name="idieresis" unicode="&#xef;" horiz-adv-x="228" 
d="M77 0v500h75v-500h-75zM-10 594v106h71v-106h-71zM169 594v106h71v-106h-71z" />
    <glyph glyph-name="eth" unicode="&#xf0;" horiz-adv-x="573" 
d="M406.5 396c-23 31.333 -60.001 47.002 -111.001 47.002s-86.333 -15.333 -106 -46s-29.5 -79 -29.5 -145c0 -128.667 45.667 -193 137 -193c48.667 0 84.834 15.667 108.501 47s35.5 79.666 35.5 144.999s-11.5 113.666 -34.5 144.999zM378.999 701.002l-112 -58.001
c90 -85.333 154 -150 192 -194s57 -107.667 57 -191s-19 -148.166 -57 -194.499s-91.5 -69.5 -160.5 -69.5s-122.167 23.167 -159.5 69.5s-56 109.833 -56 190.5s19 143.5 57 188.5s94 67.833 168 68.5l-97 98l-109 -61l-39 40l113 63c-50 41.333 -80 65.333 -90 72l52 35
l91 -77l112 58z" />
    <glyph glyph-name="ntilde" unicode="&#xf1;" horiz-adv-x="554" 
d="M166 397v-397h-75v500h48l12 -49c15.333 12 27.833 21.333 37.5 28s25.167 13.5 46.5 20.5s44 10.5 68 10.5c46 0 84.167 -14.167 114.5 -42.5s45.5 -68.5 45.5 -120.5v-347h-75v325c0 80.667 -33.667 121 -101 121c-48 0 -88.333 -16.333 -121 -49zM443 656v-7
c-14 -18.667 -29.833 -35 -47.5 -49s-33 -21 -46 -21s-38.833 9.16699 -77.5 27.5s-62.334 27.5 -71.001 27.5s-17.834 -3.16699 -27.501 -9.5s-17.167 -12.5 -22.5 -18.5l-8 -10l-33 33c14 18 29.667 34.167 47 48.5s32.5 21.5 45.5 21.5s38.833 -9.16699 77.5 -27.5
s62.334 -27.5 71.001 -27.5s17.834 3.16699 27.501 9.5s17.167 12.5 22.5 18.5l8 10z" />
    <glyph glyph-name="ograve" unicode="&#xf2;" 
d="M362 394c-25.333 34 -62.334 51.001 -111.001 51.001s-83.167 -16.167 -103.5 -48.5s-30.5 -81.833 -30.5 -148.5c0 -126 46.333 -189 139 -189c48.667 0 84.834 15.167 108.501 45.5s35.5 77.666 35.5 141.999s-12.667 113.5 -38 147.5zM256.999 -5.99902
c-69.333 0 -122.5 22.5 -159.5 67.5s-55.5 108 -55.5 189s17.833 144.5 53.5 190.5s88 69 157 69s123.333 -23.333 163 -70s59.5 -110 59.5 -190s-19 -142.667 -57 -188s-91.667 -68 -161 -68zM325.999 592.001l-58 -21l-130 132l75 30z" />
    <glyph glyph-name="oacute" unicode="&#xf3;" 
d="M362 394c-25.333 34 -62.334 51.001 -111.001 51.001s-83.167 -16.167 -103.5 -48.5s-30.5 -81.833 -30.5 -148.5c0 -126 46.333 -189 139 -189c48.667 0 84.834 15.167 108.501 45.5s35.5 77.666 35.5 141.999s-12.667 113.5 -38 147.5zM256.999 -5.99902
c-69.333 0 -122.5 22.5 -159.5 67.5s-55.5 108 -55.5 189s17.833 144.5 53.5 190.5s88 69 157 69s123.333 -23.333 163 -70s59.5 -110 59.5 -190s-19 -142.667 -57 -188s-91.667 -68 -161 -68zM253.999 571.001l-58 21l113 141l75 -30z" />
    <glyph glyph-name="ocircumflex" unicode="&#xf4;" 
d="M362 394c-25.333 34 -62.334 51.001 -111.001 51.001s-83.167 -16.167 -103.5 -48.5s-30.5 -81.833 -30.5 -148.5c0 -126 46.333 -189 139 -189c48.667 0 84.834 15.167 108.501 45.5s35.5 77.666 35.5 141.999s-12.667 113.5 -38 147.5zM256.999 -5.99902
c-69.333 0 -122.5 22.5 -159.5 67.5s-55.5 108 -55.5 189s17.833 144.5 53.5 190.5s88 69 157 69s123.333 -23.333 163 -70s59.5 -110 59.5 -190s-19 -142.667 -57 -188s-91.667 -68 -161 -68zM235.999 712.001h47l136 -100l-19 -29l-141 75l-142 -75l-19 29z" />
    <glyph glyph-name="otilde" unicode="&#xf5;" 
d="M147.5 396.5c-20.333 -32.333 -30.501 -81.832 -30.501 -148.499c0 -126 46.333 -189 139 -189c48.667 0 84.834 15.167 108.501 45.5s35.5 77.666 35.5 141.999s-12.667 113.5 -38 147.5s-62.333 51 -111 51s-83.167 -16.167 -103.5 -48.5zM256.999 -5.99902
c-69.333 0 -122.5 22.5 -159.5 67.5s-55.5 108 -55.5 189s17.833 144.5 53.5 190.5s88 69 157 69s123.333 -23.333 163 -70s59.5 -110 59.5 -190s-19 -142.667 -57 -188s-91.667 -68 -161 -68zM425.999 657.001v-7c-14 -18.667 -29.833 -35 -47.5 -49s-33 -21 -46 -21
s-38.833 9.16699 -77.5 27.5s-62.334 27.5 -71.001 27.5s-17.834 -3.16699 -27.501 -9.5s-17.167 -12.833 -22.5 -19.5l-8 -9l-33 33c14 18 29.667 34.167 47 48.5s32.5 21.5 45.5 21.5s38.833 -9.16699 77.5 -27.5s62.334 -27.5 71.001 -27.5s17.834 3.16699 27.501 9.5
s17.167 12.833 22.5 19.5l8 9z" />
    <glyph glyph-name="odieresis" unicode="&#xf6;" 
d="M362 394c-25.333 34 -62.334 51.001 -111.001 51.001s-83.167 -16.167 -103.5 -48.5s-30.5 -81.833 -30.5 -148.5c0 -126 46.333 -189 139 -189c48.667 0 84.834 15.167 108.501 45.5s35.5 77.666 35.5 141.999s-12.667 113.5 -38 147.5zM256.999 -5.99902
c-69.333 0 -122.5 22.5 -159.5 67.5s-55.5 108 -55.5 189s17.833 144.5 53.5 190.5s88 69 157 69s123.333 -23.333 163 -70s59.5 -110 59.5 -190s-19 -142.667 -57 -188s-91.667 -68 -161 -68zM132.999 594.001v106h71v-106h-71zM311.999 594.001v106h71v-106h-71z" />
    <glyph glyph-name="divide" unicode="&#xf7;" horiz-adv-x="524" 
d="M305 0h-75v106h75v-106zM305 394h-75v106h75v-106zM478 228h-432v65h432v-65z" />
    <glyph glyph-name="oslash" unicode="&#xf8;" 
d="M389 338l-211.001 -256c18 -15.333 44 -23 78 -23c48.667 0 84.834 15.667 108.501 47s35.5 80 35.5 146c0 33.333 -3.66699 62 -11 86zM136.999 139l224 267.001c-25.333 26.667 -62.5 40 -111.5 40s-83.333 -16.167 -103 -48.5s-29.5 -81.833 -29.5 -148.5
c0 -34.667 6.66699 -71.334 20 -110.001zM529.999 507.001l-86.999 -103.999c21.333 -40.667 32 -90.334 32 -149.001c0 -80.667 -19 -144.167 -57 -190.5s-91.667 -69.5 -161 -69.5c-47.333 0 -88.333 12 -123 36l-60 -73l-52 44l68 79c-32 50.667 -48 112.667 -48 186
s17.833 132.5 53.5 177.5s85.167 67.5 148.5 67.5s115.666 -18 156.999 -54l72 88z" />
    <glyph glyph-name="ugrave" unicode="&#xf9;" horiz-adv-x="554" 
d="M387 500l76.001 -0.00195312v-500h-44l-25 59c-53.333 -43.333 -104.333 -65 -153 -65s-85.834 14.167 -111.501 42.5s-38.5 68.5 -38.5 120.5v343h75v-331c0 -39.333 5.83301 -67.666 17.5 -84.999s31 -26 58 -26s54.5 7.33301 82.5 22s49 30.334 63 47.001v373z
M333.001 591.998l-58 -21l-130 132l75 30z" />
    <glyph glyph-name="uacute" unicode="&#xfa;" horiz-adv-x="554" 
d="M387 127l0.000976562 372.998h76v-500h-44l-25 59c-53.333 -43.333 -104.333 -65 -153 -65s-85.834 14.167 -111.501 42.5s-38.5 68.5 -38.5 120.5v343h75v-331c0 -39.333 5.83301 -67.666 17.5 -84.999s31 -26 58 -26s54.5 7.33301 82.5 22s49 30.334 63 47.001z
M271.001 570.998l-58 21l113 141l75 -30z" />
    <glyph glyph-name="ucircumflex" unicode="&#xfb;" horiz-adv-x="554" 
d="M387 127l0.000976562 372.998h76v-500h-44l-25 59c-53.333 -43.333 -104.333 -65 -153 -65s-85.834 14.167 -111.501 42.5s-38.5 68.5 -38.5 120.5v343h75v-331c0 -39.333 5.83301 -67.666 17.5 -84.999s31 -26 58 -26s54.5 7.33301 82.5 22s49 30.334 63 47.001z
M254.001 711.998h47l136 -100l-19 -29l-141 75l-142 -75l-19 29z" />
    <glyph glyph-name="udieresis" unicode="&#xfc;" horiz-adv-x="554" 
d="M387 500l76.001 -0.00195312v-500h-44l-25 59c-53.333 -43.333 -104.333 -65 -153 -65s-85.834 14.167 -111.501 42.5s-38.5 68.5 -38.5 120.5v343h75v-331c0 -39.333 5.83301 -67.666 17.5 -84.999s31 -26 58 -26s54.5 7.33301 82.5 22s49 30.334 63 47.001v373z
M152.001 593.998v106h71v-106h-71zM331.001 593.998v106h71v-106h-71z" />
    <glyph glyph-name="yacute" unicode="&#xfd;" horiz-adv-x="445" 
d="M180 -10l-169 510h85l127 -420l128 420h83l-172 -500c-22 -64.667 -46.333 -114.667 -73 -150s-61 -64 -103 -86l-28 52c26.667 15.333 51.667 38 75 68s39 65.333 47 106zM201 571l-58 21l113 141l75 -30z" />
    <glyph glyph-name="thorn" unicode="&#xfe;" horiz-adv-x="546" 
d="M91 700h75.001v-250c57.333 40.667 108.666 61 153.999 61c120 0 180 -86.333 180 -259c0 -98 -21.333 -166.667 -64 -206c-38 -34.667 -82 -52 -132 -52s-96.333 16.667 -139 50v-245h-74v901zM166.001 379l0.00195312 -271.999
c13.333 -15.333 31.166 -27.333 53.499 -36s44.166 -13 65.499 -13c52 0 88.333 15.333 109 46s31 78.667 31 144s-10.333 114.666 -31 147.999s-47 50 -79 50c-48 0 -97.667 -22.333 -149 -67z" />
    <glyph glyph-name="ydieresis" unicode="&#xff;" horiz-adv-x="445" 
d="M100 596v106h71v-106h-71zM279 596v106h71v-106h-71zM11 500h85l127 -420l128 420h83l-172 -500c-22 -64.667 -46.333 -114.667 -73 -150s-61 -64 -103 -86l-28 52c26.667 15.333 51.667 38 75 68s39 65.333 47 106z" />
    <glyph glyph-name="hbar" unicode="&#x127;" horiz-adv-x="556" 
d="M465 0l-75 0.000976562v329c0 80.667 -33.667 121 -101 121c-50 0 -91 -16 -123 -48v-402h-75v700h74v-237c14.667 12 26.167 20.667 34.5 26s22 10.666 41 15.999s40.5 8 64.5 8c46 0 84.167 -14 114.5 -42s45.5 -68 45.5 -120v-351zM6 585.001v55h317v-55h-317z" />
    <glyph glyph-name="Itilde" unicode="&#x128;" horiz-adv-x="257" 
d="M166 0h-75v700h75v-700zM295 835v-7c-14 -18.667 -29.833 -35 -47.5 -49s-33 -21 -46 -21s-38.833 9.16699 -77.5 27.5s-62.334 27.5 -71.001 27.5s-17.834 -3.16699 -27.501 -9.5s-17.167 -12.5 -22.5 -18.5l-8 -10l-33 33c14 18 29.667 34.167 47 48.5
s32.5 21.5 45.5 21.5s38.833 -9.16699 77.5 -27.5s62.334 -27.5 71.001 -27.5s17.834 3.16699 27.501 9.5s17.167 12.5 22.5 18.5l8 10z" />
    <glyph glyph-name="itilde" unicode="&#x129;" horiz-adv-x="228" 
d="M77 0v500h75v-500h-75zM281 664v-7c-14 -18.667 -29.833 -35 -47.5 -49s-33 -21 -46 -21s-38.833 9.16699 -77.5 27.5s-62.334 27.5 -71.001 27.5s-17.834 -3.16699 -27.501 -9.5s-17.167 -12.5 -22.5 -18.5l-8 -10l-33 33c14 18 29.667 34.167 47 48.5
s32.5 21.5 45.5 21.5s38.833 -9.16699 77.5 -27.5s62.334 -27.5 71.001 -27.5s17.834 3.16699 27.501 9.5s17.167 12.5 22.5 18.5l8 10z" />
    <glyph glyph-name="dotlessi" unicode="&#x131;" horiz-adv-x="228" 
d="M77 0v500h75v-500h-75z" />
    <glyph glyph-name="ij" unicode="&#x133;" horiz-adv-x="450" 
d="M77 0v500h75v-500h-75zM152 700v-89h-75v89h75zM374 700v-88h-75v88h75zM258 -204c27.333 35.333 41 92 41 170v534h75v-510c0 -57.333 -5.5 -103 -16.5 -137s-29.5 -64.667 -55.5 -92z" />
    <glyph glyph-name="Jcircumflex" unicode="&#x134;" horiz-adv-x="343" 
d="M252 211c0 -145.333 -50.333 -218 -151 -218c-35.333 0 -68.666 3.66699 -99.999 11v63c36 -6 65.667 -9 89 -9c33.333 0 56.166 15.333 68.499 46s18.5 72 18.5 124v413h-145v59h220v-489zM149 880h47l136 -100l-19 -29l-141 75l-142 -75l-19 29z" />
    <glyph glyph-name="jcircumflex" unicode="&#x135;" horiz-adv-x="222" 
d="M30 -204c27.333 35.333 41 92 41 170v534h75v-510c0 -57.333 -5.5 -103 -16.5 -137s-29.5 -64.667 -55.5 -92zM89 712h47l136 -100l-19 -29l-141 75l-142 -75l-19 29z" />
    <glyph glyph-name="kcedilla" unicode="&#x137;" horiz-adv-x="509" 
d="M91 700h75v-412l214 212h95l-212 -203l223 -297h-85l-182 250l-53 -54v-196h-75v700zM310 -40c0 -32 -3.83203 -58.666 -11.499 -79.999s-24.834 -53.666 -51.501 -96.999l-49 31c17.333 35.333 28.5 61.166 33.5 77.499s7.5 39.166 7.5 68.499h71z" />
    <glyph glyph-name="kgreenlandic" unicode="&#x138;" horiz-adv-x="509" 
d="M91 500h75v-212l214 212h95l-212 -203l223 -297h-85l-182 250l-53 -54v-196h-75v500z" />
    <glyph glyph-name="ldot" unicode="&#x140;" horiz-adv-x="385" 
d="M91 0v700h75v-700h-75zM335 247h-75v103h75v-103z" />
    <glyph glyph-name="Lslash" unicode="&#x141;" horiz-adv-x="426" 
d="M106 345l-83 -50v72l83 49v283h75v-251l110 66v-72l-110 -64v-312h215v-66h-290v345z" />
    <glyph glyph-name="lslash" unicode="&#x142;" horiz-adv-x="303" 
d="M173 448v-448h-70v415l-83 -50v72l83 49v247h70v-215l110 66v-72z" />
    <glyph glyph-name="Nacute" unicode="&#x143;" horiz-adv-x="679" 
d="M588 -1h-82l-337 561v-560h-78v700h78l344 -582v582h75v-701zM318 752l75 124h84l-98 -124h-61z" />
    <glyph glyph-name="nacute" unicode="&#x144;" horiz-adv-x="554" 
d="M166 397v-397h-75v500h48l12 -49c15.333 12 27.833 21.333 37.5 28s25.167 13.5 46.5 20.5s44 10.5 68 10.5c46 0 84.167 -14.167 114.5 -42.5s45.5 -68.5 45.5 -120.5v-347h-75v325c0 80.667 -33.667 121 -101 121c-48 0 -88.333 -16.333 -121 -49zM273 571l-58 21
l113 141l75 -30z" />
    <glyph glyph-name="OE" unicode="&#x152;" horiz-adv-x="873" 
d="M798 0l-476 1c-91.333 0 -160.333 33 -207 99s-70 151 -70 255s23.5 187.5 70.5 250.5s115.833 94.5 206.5 94.5h476v-66h-302v-221h277v-67h-277v-275h302v-71zM323 70l106 -0.00195312v564h-105c-35.333 0 -66.5 -7.66699 -93.5 -23s-48.167 -36.333 -63.5 -63
c-30.667 -53.333 -46 -119.666 -46 -198.999s17.167 -145.666 51.5 -198.999s84.5 -80 150.5 -80z" />
    <glyph glyph-name="oe" unicode="&#x153;" horiz-adv-x="861" 
d="M362 398c-25.333 34 -62.333 51 -111 51s-82.834 -16.167 -102.501 -48.5s-29.5 -81.833 -29.5 -148.5c0 -128.667 45.667 -193 137 -193c48.667 0 84.834 15.667 108.501 47s35.5 79.333 35.5 144s-12.667 114 -38 148zM447 404
c18.667 33.333 43.502 59.335 74.502 78.002s65.167 28 102.5 28c58.667 0 104.667 -19.333 138 -58s50 -91 50 -157c0 -18 -0.666992 -38.333 -2 -61h-319c0 -64 15.167 -109.333 45.5 -136s68.5 -40 114.5 -40c23.333 0 39.666 1.16699 48.999 3.5
s18.166 4.66602 26.499 6.99902s14.166 4.16602 17.499 5.49902c16.667 4.66699 31 9 43 13l12 -58c-66.667 -23.333 -118.667 -35 -156 -35c-95.333 0 -161.666 36.333 -198.999 109c-36.667 -72.667 -99 -109 -187 -109c-68.667 0 -121.667 23.167 -159 69.5
s-56 110 -56 191s17.833 144.5 53.5 190.5s87.834 69 156.501 69c40 0 78.667 -10.833 116 -32.5s63.666 -47.5 78.999 -77.5zM496.002 291.002h244c0 49.333 -8.66699 87.333 -26 114s-47.5 40 -90.5 40s-74.5 -14.333 -94.5 -43s-31 -65.667 -33 -111z" />
    <glyph glyph-name="Racute" unicode="&#x154;" horiz-adv-x="603" 
d="M166 329l-0.000976562 -328h-75v700h202c68 0 119.167 -15.5 153.5 -46.5s51.5 -75.167 51.5 -132.5c0 -40 -13.833 -76.667 -41.5 -110s-61.834 -52.666 -102.501 -57.999c32.667 -7.33301 55.834 -17.833 69.501 -31.5s29.834 -42.834 48.501 -87.501l99 -234h-79
l-97 224c-18 42 -38.167 69.833 -60.5 83.5s-57.833 20.5 -106.5 20.5h-62zM165.999 637l0.000976562 -243.999h113c41.333 0 74.166 12.167 98.499 36.5s36.5 55.166 36.5 92.499s-11 65.833 -33 85.5s-52.667 29.5 -92 29.5h-123zM254 752.001l75 124h84l-98 -124h-61z
" />
    <glyph glyph-name="Rcommaaccent" unicode="&#x156;" horiz-adv-x="603" 
d="M228 329h-62.001v-328h-75v700h202c68 0 119.167 -15.5 153.5 -46.5s51.5 -75.167 51.5 -132.5c0 -40 -13.833 -76.667 -41.5 -110s-61.834 -52.666 -102.501 -57.999c32.667 -7.33301 55.834 -17.833 69.501 -31.5s29.834 -42.834 48.501 -87.501l99 -234h-79l-97 224
c-18 42 -38.167 69.833 -60.5 83.5s-57.833 20.5 -106.5 20.5zM288.999 637l-122.999 0.000976562v-244h113c41.333 0 74.166 12.167 98.499 36.5s36.5 55.166 36.5 92.499s-11 65.833 -33 85.5s-52.667 29.5 -92 29.5zM350 -39.999c0 -32 -3.83203 -58.666 -11.499 -79.999
s-24.834 -53.666 -51.501 -96.999l-49 31c17.333 35.333 28.5 61.166 33.5 77.499s7.5 39.166 7.5 68.499h71z" />
    <glyph glyph-name="rcommaaccent" unicode="&#x157;" horiz-adv-x="371" 
d="M166 382l0.000976562 -381.999h-75v500h48l12 -59c32 25.333 58.667 43.166 80 53.499s45.666 15.5 72.999 15.5c13.333 0 23.333 -0.666992 30 -2l14 -4l-12 -69c-12 4 -28.333 6 -49 6c-40 0 -80.333 -19.667 -121 -59zM164.001 -39.999
c0 -32 -3.83203 -58.666 -11.499 -79.999s-24.834 -53.666 -51.501 -96.999l-49 31c17.333 35.333 28.5 61.166 33.5 77.499s7.5 39.166 7.5 68.499h71z" />
    <glyph glyph-name="Rcaron" unicode="&#x158;" horiz-adv-x="603" 
d="M310 773h-47l-136 100l19 29l141 -75l142 75l19 -29zM228 328h-62.001v-328h-75v700h202c68 0 119.167 -15.5 153.5 -46.5s51.5 -75.167 51.5 -132.5c0 -40 -13.833 -76.667 -41.5 -110s-61.834 -52.666 -102.501 -57.999c32.667 -7.33301 55.834 -17.833 69.501 -31.5
s29.834 -42.834 48.501 -87.501l99 -234h-79l-97 224c-18 42 -38.167 69.833 -60.5 83.5s-57.833 20.5 -106.5 20.5zM288.999 636l-122.999 0.000976562v-244h113c41.333 0 74.166 12.167 98.499 36.5s36.5 55.166 36.5 92.499s-11 65.833 -33 85.5s-52.667 29.5 -92 29.5z
" />
    <glyph glyph-name="rcaron" unicode="&#x159;" horiz-adv-x="371" 
d="M235 589h-47l-136 100l19 29l141 -75l142 75l19 -29zM166 382l0.000976562 -381.999h-75v500h48l12 -59c32 25.333 58.667 43.166 80 53.499s45.666 15.5 72.999 15.5c13.333 0 23.333 -0.666992 30 -2l14 -4l-12 -69c-12 4 -28.333 6 -49 6
c-40 0 -80.333 -19.667 -121 -59z" />
    <glyph glyph-name="Scaron" unicode="&#x160;" horiz-adv-x="551" 
d="M293 773h-47l-136 100l19 29l141 -75l142 75l19 -29zM443 675l-15.9971 -66.998l-58 17c-41.333 10 -77 15 -107 15c-78.667 0 -118 -35 -118 -105c0 -30.667 12 -55.834 36 -75.501s53.167 -35.334 87.5 -47.001s68.666 -24.334 102.999 -38.001s63.5 -34.667 87.5 -63
s36 -64.166 36 -107.499c0 -66 -20.333 -117.5 -61 -154.5s-98.334 -55.5 -173.001 -55.5c-37.333 0 -74.833 5.5 -112.5 16.5s-68.5 23.833 -92.5 38.5l25 57c60.667 -28 118.167 -42 172.5 -42s95.666 11 123.999 33s42.5 54 42.5 96c0 42.667 -23 76 -69 100
c-20.667 10.667 -43.5 20.667 -68.5 30s-50 19.5 -75 30.5s-47.667 23.5 -68 37.5s-37 33 -50 57s-19.5 52 -19.5 84c0 57.333 17.167 101.333 51.5 132s80.5 46 138.5 46s119.333 -11.667 184 -35z" />
    <glyph glyph-name="scaron" unicode="&#x161;" horiz-adv-x="445" 
d="M243 589h-47l-136 100l19 29l141 -75l142 75l19 -29zM72 89c43.333 -20 84.668 -30.002 124.001 -30.002s69.166 7.83301 89.499 23.5s30.5 36.5 30.5 62.5s-8.66699 46.167 -26 60.5s-38.5 25.5 -63.5 33.5s-50 16.667 -75 26s-46.167 23.333 -63.5 42
s-26 42.334 -26 71.001c0 42 13.667 74.5 41 97.5s64.333 34.5 111 34.5s90 -7 130 -21l7 -3l-13 -64c-40 15.333 -77.167 23 -111.5 23s-57.833 -5.33301 -70.5 -16s-19 -28.667 -19 -54c0 -16 8.66699 -29.667 26 -41s38.5 -21.166 63.5 -29.499s50 -18 75 -29
s46.167 -27.5 63.5 -49.5s26 -49 26 -81c0 -46.667 -16.333 -83.5 -49 -110.5s-77.667 -40.5 -135 -40.5s-108.333 13 -153 39z" />
    <glyph glyph-name="Ydieresis" unicode="&#x178;" horiz-adv-x="552" 
d="M539 700l-230 -385v-315h-75v315l-221 385h83l177 -324l185 324h81zM151 816v106h71v-106h-71zM330 816v106h71v-106h-71z" />
    <glyph glyph-name="Zcaron" unicode="&#x17d;" horiz-adv-x="508" 
d="M270 773h-47l-136 100l19 29l141 -75l142 75l19 -29zM479 0h-439v62l320 573h-321v65h409v-57l-317 -577h348v-66z" />
    <glyph glyph-name="zcaron" unicode="&#x17e;" horiz-adv-x="412" 
d="M223 589h-47l-136 100l19 29l141 -75l142 75l19 -29zM46 500h304v-60l-220 -375h235v-65h-319v60l220 375h-220v65z" />
    <glyph glyph-name="florin" unicode="&#x192;" horiz-adv-x="310" 
d="M35 442l20.001 155.999c4 40.667 19.5 69.834 46.5 87.501s58.833 26.5 95.5 26.5s67 -4 91 -12l-16 -54c-20 3.33301 -40.167 5 -60.5 5s-38.833 -6 -55.5 -18s-26.334 -28.333 -29.001 -49l-18 -142h112l-7 -60h-112l-64 -525l-78 -10l67 535h-77l7 60h78z" />
    <glyph glyph-name="circumflex" unicode="&#x2c6;" horiz-adv-x="491" 
d="M223 820h47l136 -100l-19 -29l-141 75l-142 -75l-19 29z" />
    <glyph glyph-name="caron" unicode="&#x2c7;" horiz-adv-x="441" 
d="M349 690l-139 -147l-134 147l37 41l100 -94l99 94z" />
    <glyph glyph-name="breve" unicode="&#x2d8;" horiz-adv-x="400" 
d="M200 43c24 0 41.665 5.33301 52.998 16s17 29.334 17 56.001h44v-13c0 -34 -9.66699 -60.333 -29 -79s-47.666 -28 -84.999 -28s-65.666 9.33301 -84.999 28s-29 45 -29 79v13h44c0 -26.667 5.66699 -45.334 17 -56.001s29 -16 53 -16z" />
    <glyph glyph-name="dotaccent" unicode="&#x2d9;" horiz-adv-x="245" 
d="M155 705h-65v96h65v-96z" />
    <glyph glyph-name="ring" unicode="&#x2da;" horiz-adv-x="398" 
d="M198 772c36.667 0 64.666 -10.167 83.999 -30.5s29 -47.166 29 -80.499s-9.33301 -59.833 -28 -79.5s-46.667 -29.5 -84 -29.5s-65.333 9.83301 -84 29.5s-28 46.167 -28 79.5s9.33301 60.166 28 80.499s46.334 30.5 83.001 30.5zM198.999 728
c-37.333 0 -56 -21.667 -56 -65c0 -20.667 4 -36.667 12 -48s22.833 -17 44.5 -17s36.667 5.66699 45 17s12.5 27.333 12.5 48c0 43.333 -19.333 65 -58 65z" />
    <glyph glyph-name="ogonek" unicode="&#x2db;" horiz-adv-x="301" 
d="M60 -118c0 46.667 25.333 86 76 118h83c-58.667 -31.333 -88 -65 -88 -101c0 -26.667 16.667 -40 50 -40c10.667 0 30.667 4 60 12l13 -40c-32 -16.667 -64.333 -25 -97 -25c-64.667 0 -97 25.333 -97 76z" />
    <glyph glyph-name="tilde" unicode="&#x2dc;" horiz-adv-x="516" 
d="M433 760v-7c-14 -18.667 -29.833 -35 -47.5 -49s-33 -21 -46 -21s-38.833 9.16699 -77.5 27.5s-62.334 27.5 -71.001 27.5s-17.834 -3.16699 -27.501 -9.5s-17.167 -12.5 -22.5 -18.5l-8 -10l-33 33c14 18 29.667 34.167 47 48.5s32.5 21.5 45.5 21.5
s38.833 -9.16699 77.5 -27.5s62.334 -27.5 71.001 -27.5s17.834 3.16699 27.501 9.5s17.167 12.5 22.5 18.5l8 10z" />
    <glyph glyph-name="hungarumlaut" unicode="&#x2dd;" horiz-adv-x="499" 
d="M139 571l-58 21l113 141l75 -30zM305 571l-58 21l113 141l75 -30z" />
    <glyph glyph-name="Delta" unicode="&#x394;" horiz-adv-x="613" 
d="M583 0h-553l230 700h91zM476 77l-171 547l-180 -547h351z" />
    <glyph glyph-name="Delta" unicode="&#x2206;" horiz-adv-x="613" 
d="M583 0h-553l230 700h91zM476 77l-171 547l-180 -547h351z" />
    <glyph glyph-name="Omega" unicode="&#x3a9;" horiz-adv-x="738" 
d="M538 65l128.001 0.000976562v-65h-265v65c69.333 21.333 115 61.666 137 120.999c17.333 48 26 101.333 26 160s-7.16699 109 -21.5 151s-37.333 77.167 -69 105.5s-68.834 42.5 -111.501 42.5c-68 0 -118.833 -28.333 -152.5 -85s-50.5 -125 -50.5 -205
c0 -98.667 24.333 -176.667 73 -234c26.667 -32 60 -50.667 100 -56v-65h-265v65h113c-64.667 64.667 -97 161.334 -97 290.001c0 104.667 23.5 190 70.5 256s116 99 207 99s160.167 -33 207.5 -99s71 -151.333 71 -256c0 -128.667 -33.667 -225.334 -101 -290.001z" />
    <glyph glyph-name="Omega" unicode="&#x2126;" horiz-adv-x="738" 
d="M538 65l128.001 0.000976562v-65h-265v65c69.333 21.333 115 61.666 137 120.999c17.333 48 26 101.333 26 160s-7.16699 109 -21.5 151s-37.333 77.167 -69 105.5s-68.834 42.5 -111.501 42.5c-68 0 -118.833 -28.333 -152.5 -85s-50.5 -125 -50.5 -205
c0 -98.667 24.333 -176.667 73 -234c26.667 -32 60 -50.667 100 -56v-65h-265v65h113c-64.667 64.667 -97 161.334 -97 290.001c0 104.667 23.5 190 70.5 256s116 99 207 99s160.167 -33 207.5 -99s71 -151.333 71 -256c0 -128.667 -33.667 -225.334 -101 -290.001z" />
    <glyph glyph-name="pi" unicode="&#x3c0;" horiz-adv-x="583" 
d="M529 544v-65h-96v-479h-74v479h-152v-479h-75v479h-92v65h489z" />
    <glyph glyph-name="endash" unicode="&#x2013;" horiz-adv-x="500" 
d="M500 257h-500v65h500v-65z" />
    <glyph glyph-name="emdash" unicode="&#x2014;" horiz-adv-x="800" 
d="M800 257h-800v65h800v-65z" />
    <glyph glyph-name="quoteleft" unicode="&#x2018;" horiz-adv-x="268" 
d="M57 510l114 259l55 -17l-87 -267z" />
    <glyph glyph-name="quoteright" unicode="&#x2019;" horiz-adv-x="267" 
d="M210 745l-113 -260l-56 17l88 267z" />
    <glyph glyph-name="quotesinglbase" unicode="&#x201a;" horiz-adv-x="268" 
d="M210 98l-113 -260l-56 17l88 267z" />
    <glyph glyph-name="quotedblleft" unicode="&#x201c;" horiz-adv-x="466" 
d="M57 512l114 255l53 -16l-89 -263zM259 510l111 257l53 -16l-87 -265z" />
    <glyph glyph-name="quotedblright" unicode="&#x201d;" horiz-adv-x="465" 
d="M407 741l-114 -255l-53 16l89 263zM205 743l-111 -257l-53 16l87 265z" />
    <glyph glyph-name="quotedblbase" unicode="&#x201e;" horiz-adv-x="465" 
d="M407 96l-114 -255l-53 16l89 263zM205 98l-111 -257l-53 16l87 265z" />
    <glyph glyph-name="dagger" unicode="&#x2020;" horiz-adv-x="502" 
d="M285 78h-75v421h-167v65h167v176h75v-176h174v-65h-174v-421z" />
    <glyph glyph-name="daggerdbl" unicode="&#x2021;" horiz-adv-x="520" 
d="M287 183v-183h-65v183h-177v65h177v262h-177v65h177v175h65v-175h188v-65h-188v-262h188v-65h-188z" />
    <glyph glyph-name="bullet" unicode="&#x2022;" horiz-adv-x="470" 
d="M319 356c25.333 -25.333 38 -55.833 38 -91.5s-12.667 -66 -38 -91s-55.666 -37.5 -90.999 -37.5s-65.666 12.5 -90.999 37.5s-38 55.333 -38 91s12.667 66.167 38 91.5s55.666 38 90.999 38s65.666 -12.667 90.999 -38z" />
    <glyph glyph-name="ellipsis" unicode="&#x2026;" horiz-adv-x="738" 
d="M130 0h-75v106h75v-106zM401 0h-75v106h75v-106zM672 0h-75v106h75v-106z" />
    <glyph glyph-name="perthousand" unicode="&#x2030;" horiz-adv-x="1059" 
d="M594 688l-408 -688h-78l408 688h78zM600 252c-12 22.667 -29.833 34 -53.5 34s-41.5 -11.333 -53.5 -34s-18 -52 -18 -88c0 -80 23.333 -120 70 -120c48.667 0 73 40 73 120c0 36 -6 65.333 -18 88zM545 336c88.667 0 133 -56.998 133 -170.998s-45 -171 -135 -171
c-43.333 0 -75.5 15.167 -96.5 45.5s-31.5 70.666 -31.5 120.999s10.667 92.166 32 125.499s54 50 98 50zM230 612.002c-12 22.667 -29.833 34 -53.5 34s-41.5 -11.333 -53.5 -34s-18 -52 -18 -88c0 -80 23.333 -120 70 -120c48.667 0 73 40 73 120c0 36 -6 65.333 -18 88z
M175 696.002c88.667 0 133 -56.998 133 -170.998s-45 -171 -135 -171c-43.333 0 -75.5 15.167 -96.5 45.5s-31.5 70.666 -31.5 120.999s10.667 92.166 32 125.499s54 50 98 50zM922 252.004c-12 22.667 -29.833 34 -53.5 34s-41.5 -11.333 -53.5 -34s-18 -52 -18 -88
c0 -80 23.333 -120 70 -120c48.667 0 73 40 73 120c0 36 -6 65.333 -18 88zM867 336.004c88.667 0 133 -56.998 133 -170.998s-45 -171 -135 -171c-43.333 0 -75.5 15.167 -96.5 45.5s-31.5 70.666 -31.5 120.999s10.667 92.166 32 125.499s54 50 98 50z" />
    <glyph glyph-name="guilsinglleft" unicode="&#x2039;" horiz-adv-x="330" 
d="M253 105l-56 -23l-138 214l139 216l55 -23l-108 -191z" />
    <glyph glyph-name="guilsinglright" unicode="&#x203a;" horiz-adv-x="330" 
d="M78 489l56 23l138 -214l-139 -216l-55 23l108 191z" />
    <glyph glyph-name="fraction" unicode="&#x2044;" horiz-adv-x="406" 
d="M476 688l-408 -687h-78l408 687h78z" />
    <glyph glyph-name="Euro" unicode="&#x20ac;" horiz-adv-x="630" 
d="M98 305l-0.996094 57.001c0 6 0.666992 19 2 39h-78v65h88c17.333 76 51.666 135.667 102.999 179s116 65 194 65c50.667 0 102.667 -10 156 -30l-18 -62c-42.667 18 -91.167 27 -145.5 27s-100 -15.833 -137 -47.5s-62.5 -75.5 -76.5 -131.5h236v-66h-246
c-1.33301 -24 -2 -42.667 -2 -56s0.333008 -26.333 1 -39h247v-65h-240c13.333 -57.333 38.166 -101.833 74.499 -133.5s80 -47.5 131 -47.5s109.5 13 175.5 39l20 -52c-57.333 -34.667 -122.833 -52 -196.5 -52s-135.334 22.167 -185.001 66.5
s-81.834 104.166 -96.501 179.499h-83v65h77z" />
    <glyph glyph-name="trademark" unicode="&#x2122;" horiz-adv-x="686" 
d="M629 418h-54v194l-91 -117h-10l-81 117v-194h-53v282h57l87 -130l91 130h54v-282zM129 418v230h-79v52h216v-52h-81v-230h-56z" />
    <glyph glyph-name="arrowleft" unicode="&#x2190;" horiz-adv-x="745" 
d="M294 74l-248 245l245 229l53 -53l-152 -143h505v-75h-505l156 -151z" />
    <glyph glyph-name="arrowup" unicode="&#x2191;" horiz-adv-x="705" 
d="M115 375l245 248l229 -245l-53 -53l-143 152v-505h-75v505l-151 -156z" />
    <glyph glyph-name="arrowright" unicode="&#x2192;" horiz-adv-x="745" 
d="M451 555l248 -245l-245 -229l-53 53l152 143h-505v75h505l-156 151z" />
    <glyph glyph-name="arrowdown" unicode="&#x2193;" horiz-adv-x="705" 
d="M589 195l-245 -248l-229 245l53 53l143 -152v505h75v-505l151 156z" />
    <glyph glyph-name="partialdiff" unicode="&#x2202;" horiz-adv-x="508" 
d="M370 436c-8.66699 50.667 -39.5 100.832 -92.5 150.499s-104.167 77.5 -153.5 83.5l21 68c97.333 -20.667 174.666 -69.167 231.999 -145.5s86 -169.166 86 -278.499c0 -213.333 -79.333 -320 -238 -320c-65.333 0 -118 19.667 -158 59s-60 94.333 -60 165
s20.833 126.667 62.5 168s96.834 62 165.501 62c38.667 0 83.667 -4 135 -12zM388 308.998c0 22.667 -1.33105 42.333 -3.99805 59c-62 10 -113 15 -153 15s-74.833 -14 -104.5 -42s-44.5 -66.5 -44.5 -115.5s12.667 -88 38 -117s61.166 -43.5 107.499 -43.5
s84.666 20.167 114.999 60.5s45.5 101.5 45.5 183.5z" />
    <glyph glyph-name="product" unicode="&#x220f;" horiz-adv-x="521" 
d="M82 0h-75v700h423v-700h-75v635h-273v-635z" />
    <glyph glyph-name="summation" unicode="&#x2211;" horiz-adv-x="460" 
d="M369 0h-362v61l204 278l-194 301v60h341v-65h-252l189 -292l-203 -278h277v-65z" />
    <glyph glyph-name="minus" unicode="&#x2212;" horiz-adv-x="570" 
d="M501 275h-432v65h432v-65z" />
    <glyph glyph-name="radical" unicode="&#x221a;" horiz-adv-x="615" 
d="M226 0l-119 435h-106v65h165l116 -425l215 725h82l-248 -800h-105z" />
    <glyph glyph-name="infinity" unicode="&#x221e;" horiz-adv-x="892" 
d="M450 338c74 79.333 143.001 118.998 207.001 118.998c50.667 0 92 -14.167 124 -42.5s48 -67.166 48 -116.499s-16.833 -89.166 -50.5 -119.499s-75.834 -45.5 -126.501 -45.5c-63.333 0 -133.333 40.333 -210 121c-73.333 -80.667 -142.333 -121 -207 -121
c-51.333 0 -92.833 14 -124.5 42s-47.5 66.833 -47.5 116.5s16.833 89.667 50.5 120s76.167 45.5 127.5 45.5c36 0 70.667 -10.667 104 -32s68.333 -50.333 105 -87zM394.001 293.998c-66 68.667 -119.333 103 -160 103c-32 0 -57.667 -9.16699 -77 -27.5s-29 -43 -29 -74
s9.66699 -55.333 29 -73s46.333 -26.5 81 -26.5c42.667 0 94.667 32.667 156 98zM492.001 293.998c61.333 -65.333 113.333 -98 156 -98c34.667 0 61.667 8.83301 81 26.5s29 42 29 73s-9.66699 55.667 -29 74s-45 27.5 -77 27.5c-40.667 0 -94 -34.333 -160 -103z" />
    <glyph glyph-name="integral" unicode="&#x222b;" horiz-adv-x="352" 
d="M131 -73l1 753c0 41.333 12.833 72.333 38.5 93s53 31 82 31s54.833 -3.66699 77.5 -11l-7 -49h-48c-46 0 -69 -22.667 -69 -68v-753c0 -41.333 -13 -72.333 -39 -93s-53.5 -31 -82.5 -31s-54.833 3.66699 -77.5 11l7 49h48c46 0 69 22.667 69 68z" />
    <glyph glyph-name="approxequal" unicode="&#x2248;" horiz-adv-x="569" 
d="M494 418c-12 -26 -28.333 -46.167 -49 -60.5s-44.834 -21.5 -72.501 -21.5s-59.5 9.83301 -95.5 29.5s-67 29.5 -93 29.5s-54 -15 -84 -45l-25 47c12.667 18.667 29.5 34 50.5 46s45 18 72 18s58.5 -10 94.5 -30s66.833 -30 92.5 -30s53.834 15.333 84.501 46zM494 213
c-12 -26 -28.333 -46.167 -49 -60.5s-44.834 -21.5 -72.501 -21.5s-59.5 9.83301 -95.5 29.5s-67 29.5 -93 29.5s-54 -15 -84 -45l-25 47c12.667 18.667 29.5 34 50.5 46s45 18 72 18s58.5 -10 94.5 -30s66.833 -30 92.5 -30s53.834 15.333 84.501 46z" />
    <glyph glyph-name="notequal" unicode="&#x2260;" horiz-adv-x="401" 
d="M374 672l-84 -244h148v-65h-170l-41 -120h211v-66h-234l-60 -176h-70l61 176h-128v66h150l42 120h-192v65h214l84 244h69z" />
    <glyph glyph-name="lessequal" unicode="&#x2264;" horiz-adv-x="490" 
d="M400 118l-392 224v57l392 225v-80l-319 -173l319 -175v-78zM400 -1h-392v65h392v-65z" />
    <glyph glyph-name="greaterequal" unicode="&#x2265;" horiz-adv-x="490" 
d="M400 346l-392 -224v77l319 175l-319 173v80l392 -225v-56zM400 -1h-391v65h391v-65z" />
    <glyph glyph-name="flecha01" unicode="&#x25b7;" horiz-adv-x="665" 
d="M110 -47v670l535 -335zM185 96l322 189l-322 203v-392z" />
    <glyph glyph-name="lozenge" unicode="&#x25ca;" horiz-adv-x="543" 
d="M503 352l-202 -353h-61l-200 351l202 351h61zM411 350l-140 268l-139 -266l140 -267z" />
    <glyph glyph-name="fi" unicode="&#xfb01;" horiz-adv-x="519" 
d="M353 0v438.999h-193v-439h-75v440h-77v60h78v96c0 40.667 12.5 69.834 37.5 87.501s52 26.5 81 26.5s57.167 -4.33301 84.5 -13l-11 -54c-22 4 -38.333 6 -49 6c-46 0 -69 -22.333 -69 -67v-82h268v-500h-75zM428 698.999v-89h-75v89h75z" />
    <glyph glyph-name="fl" unicode="&#xfb02;" horiz-adv-x="456" 
d="M291 0v639.999c-31.333 6 -52.333 9 -63 9c-46 0 -69 -22.333 -69 -67v-82h102v-60h-102v-440h-75v440h-77v60h78v96c0 40.667 12.5 69.834 37.5 87.501s55.5 26.5 91.5 26.5c14 0 39.667 -3.33301 77 -10l74 11v-711h-74z" />
    <glyph glyph-name=".null" horiz-adv-x="0" 
 />
    <glyph glyph-name="nonmarkingreturn" horiz-adv-x="333" 
 />
    <glyph glyph-name="_0000" horiz-adv-x="0" 
 />
    <glyph glyph-name="CR" horiz-adv-x="211" 
 />
    <glyph glyph-name="_0001" horiz-adv-x="0" 
 />
    <glyph glyph-name="_0158" horiz-adv-x="619" 
 />
    <glyph glyph-name="graveMAY" horiz-adv-x="438" 
d="M255 701h-61l-98 124h84z" />
    <glyph glyph-name="acuteMAY" horiz-adv-x="438" 
d="M183 701l75 124h84l-98 -124h-61z" />
    <glyph glyph-name="flecha02" horiz-adv-x="1009" 
d="M110 -47v670l896 -343zM184 58l625 229l-625 223v-452z" />
    <glyph glyph-name="Crculo0" horiz-adv-x="630" 
d="M277 159v277h71v-277h-71zM312 -5c-91.333 0 -160.333 33.8311 -207 101.498s-70 153.834 -70 258.501s23.5 190 70.5 256s116 99 207 99s160.167 -33 207.5 -99s71 -151.333 71 -256c0 -143.333 -41 -246.666 -123 -309.999c-42.667 -33.333 -94.667 -50 -156 -50z
M314 644.998c-68 0 -118.833 -28.333 -152.5 -85s-50.5 -126 -50.5 -208s17.167 -151 51.5 -207s84.833 -84 151.5 -84s117 28.333 151 85s51 128 51 214c0 108 -30 188.667 -90 242c-32 28.667 -69.333 43 -112 43zM350 564.998v-89h-75v89h75z" />
    </font>
</defs>
</svg>
